<mxfile host="app.diagrams.net" modified="2024-05-07T06:34:43.775Z" agent="Mozilla/5.0 (Windows NT 10.0; Win64; x64) AppleWebKit/537.36 (KHTML, like Gecko) Chrome/124.0.0.0 Safari/537.36 Edg/124.0.0.0" etag="cFC330lsSavszBnUYnmN" version="24.3.1" type="device" pages="4">
  <diagram name="Page-1" id="6n-fm2zlZxbRurVoFx1B">
    <mxGraphModel dx="1002" dy="577" grid="1" gridSize="10" guides="1" tooltips="1" connect="1" arrows="1" fold="1" page="1" pageScale="1" pageWidth="4681" pageHeight="3300" math="0" shadow="0">
      <root>
        <mxCell id="0" />
        <mxCell id="1" parent="0" />
        <mxCell id="iHeQuaXSldQVGiFFThyH-1" value="" style="html=1;points=[[0,0,0,0,5],[0,1,0,0,-5],[1,0,0,0,5],[1,1,0,0,-5]];perimeter=orthogonalPerimeter;outlineConnect=0;targetShapes=umlLifeline;portConstraint=eastwest;newEdgeStyle={&quot;curved&quot;:0,&quot;rounded&quot;:0};" parent="1" vertex="1">
          <mxGeometry x="140" y="150" width="30" height="1020" as="geometry" />
        </mxCell>
        <mxCell id="iHeQuaXSldQVGiFFThyH-10" style="edgeStyle=orthogonalEdgeStyle;rounded=0;orthogonalLoop=1;jettySize=auto;html=1;endArrow=none;endFill=0;dashed=1;endSize=16;targetPerimeterSpacing=-1;sourcePerimeterSpacing=24;" parent="1" source="iHeQuaXSldQVGiFFThyH-2" target="iHeQuaXSldQVGiFFThyH-1" edge="1">
          <mxGeometry relative="1" as="geometry">
            <Array as="points">
              <mxPoint x="155" y="280" />
              <mxPoint x="155" y="280" />
            </Array>
          </mxGeometry>
        </mxCell>
        <mxCell id="iHeQuaXSldQVGiFFThyH-2" value="System User" style="shape=umlActor;verticalLabelPosition=bottom;verticalAlign=top;html=1;" parent="1" vertex="1">
          <mxGeometry x="140" y="10" width="30" height="60" as="geometry" />
        </mxCell>
        <mxCell id="iHeQuaXSldQVGiFFThyH-11" style="edgeStyle=orthogonalEdgeStyle;rounded=0;orthogonalLoop=1;jettySize=auto;html=1;endArrow=none;endFill=0;dashed=1;" parent="1" target="iHeQuaXSldQVGiFFThyH-5" edge="1">
          <mxGeometry relative="1" as="geometry">
            <mxPoint x="330" y="70" as="sourcePoint" />
            <mxPoint x="300" y="470" as="targetPoint" />
            <Array as="points">
              <mxPoint x="325" y="70" />
            </Array>
          </mxGeometry>
        </mxCell>
        <mxCell id="iHeQuaXSldQVGiFFThyH-3" value=":PurchasePlant Interface" style="html=1;whiteSpace=wrap;" parent="1" vertex="1">
          <mxGeometry x="260" y="20" width="150" height="50" as="geometry" />
        </mxCell>
        <mxCell id="iHeQuaXSldQVGiFFThyH-4" value=":Plants Registry" style="html=1;whiteSpace=wrap;" parent="1" vertex="1">
          <mxGeometry x="440" y="20" width="110" height="50" as="geometry" />
        </mxCell>
        <mxCell id="iHeQuaXSldQVGiFFThyH-5" value="" style="html=1;points=[[0,0,0,0,5],[0,1,0,0,-5],[1,0,0,0,5],[1,1,0,0,-5]];perimeter=orthogonalPerimeter;outlineConnect=0;targetShapes=umlLifeline;portConstraint=eastwest;newEdgeStyle={&quot;curved&quot;:0,&quot;rounded&quot;:0};" parent="1" vertex="1">
          <mxGeometry x="310" y="150" width="30" height="1010" as="geometry" />
        </mxCell>
        <mxCell id="iHeQuaXSldQVGiFFThyH-7" value="" style="endArrow=open;endFill=1;endSize=12;html=1;rounded=0;" parent="1" source="iHeQuaXSldQVGiFFThyH-1" target="iHeQuaXSldQVGiFFThyH-5" edge="1">
          <mxGeometry width="160" relative="1" as="geometry">
            <mxPoint x="310" y="120" as="sourcePoint" />
            <mxPoint x="330" y="190" as="targetPoint" />
            <Array as="points">
              <mxPoint x="260" y="190" />
            </Array>
          </mxGeometry>
        </mxCell>
        <mxCell id="iHeQuaXSldQVGiFFThyH-8" value="View Plants" style="text;html=1;align=center;verticalAlign=middle;resizable=0;points=[];autosize=1;strokeColor=none;fillColor=none;" parent="1" vertex="1">
          <mxGeometry x="175" y="158" width="90" height="30" as="geometry" />
        </mxCell>
        <mxCell id="iHeQuaXSldQVGiFFThyH-13" value="" style="endArrow=open;endFill=1;endSize=12;html=1;rounded=0;" parent="1" edge="1">
          <mxGeometry width="160" relative="1" as="geometry">
            <mxPoint x="170" y="360" as="sourcePoint" />
            <mxPoint x="310" y="360" as="targetPoint" />
            <Array as="points">
              <mxPoint x="260" y="360" />
            </Array>
          </mxGeometry>
        </mxCell>
        <mxCell id="iHeQuaXSldQVGiFFThyH-14" value="Select Preferable Plants" style="text;html=1;align=center;verticalAlign=middle;resizable=0;points=[];autosize=1;strokeColor=none;fillColor=none;" parent="1" vertex="1">
          <mxGeometry x="160" y="320" width="150" height="30" as="geometry" />
        </mxCell>
        <mxCell id="iHeQuaXSldQVGiFFThyH-17" value="" style="html=1;points=[[0,0,0,0,5],[0,1,0,0,-5],[1,0,0,0,5],[1,1,0,0,-5]];perimeter=orthogonalPerimeter;outlineConnect=0;targetShapes=umlLifeline;portConstraint=eastwest;newEdgeStyle={&quot;curved&quot;:0,&quot;rounded&quot;:0};" parent="1" vertex="1">
          <mxGeometry x="480" y="150" width="30" height="990" as="geometry" />
        </mxCell>
        <mxCell id="iHeQuaXSldQVGiFFThyH-19" style="edgeStyle=orthogonalEdgeStyle;rounded=0;orthogonalLoop=1;jettySize=auto;html=1;endArrow=none;endFill=0;dashed=1;exitX=0.455;exitY=1;exitDx=0;exitDy=0;exitPerimeter=0;" parent="1" edge="1">
          <mxGeometry relative="1" as="geometry">
            <mxPoint x="494.8500000000001" y="70.00000000000003" as="sourcePoint" />
            <mxPoint x="494.8" y="150" as="targetPoint" />
            <Array as="points">
              <mxPoint x="494.57" y="80" />
            </Array>
          </mxGeometry>
        </mxCell>
        <mxCell id="iHeQuaXSldQVGiFFThyH-22" value="" style="endArrow=classic;endFill=1;endSize=12;html=1;rounded=0;" parent="1" edge="1">
          <mxGeometry width="160" relative="1" as="geometry">
            <mxPoint x="340" y="250" as="sourcePoint" />
            <mxPoint x="480" y="250" as="targetPoint" />
            <Array as="points">
              <mxPoint x="430" y="250" />
            </Array>
          </mxGeometry>
        </mxCell>
        <mxCell id="iHeQuaXSldQVGiFFThyH-23" value="Get Plants" style="text;html=1;align=center;verticalAlign=middle;resizable=0;points=[];autosize=1;strokeColor=none;fillColor=none;" parent="1" vertex="1">
          <mxGeometry x="365" y="230" width="80" height="30" as="geometry" />
        </mxCell>
        <mxCell id="iHeQuaXSldQVGiFFThyH-25" value="[For all plants]" style="text;html=1;align=center;verticalAlign=middle;resizable=0;points=[];autosize=1;strokeColor=none;fillColor=none;" parent="1" vertex="1">
          <mxGeometry x="330" y="200" width="100" height="30" as="geometry" />
        </mxCell>
        <mxCell id="iHeQuaXSldQVGiFFThyH-27" value="" style="endArrow=none;endFill=0;endSize=12;html=1;rounded=0;startArrow=open;startFill=0;dashed=1;" parent="1" edge="1">
          <mxGeometry width="160" relative="1" as="geometry">
            <mxPoint x="340" y="290" as="sourcePoint" />
            <mxPoint x="480" y="290" as="targetPoint" />
            <Array as="points">
              <mxPoint x="430" y="290" />
            </Array>
          </mxGeometry>
        </mxCell>
        <mxCell id="iHeQuaXSldQVGiFFThyH-28" value="display available plants" style="text;html=1;align=center;verticalAlign=middle;resizable=0;points=[];autosize=1;strokeColor=none;fillColor=none;" parent="1" vertex="1">
          <mxGeometry x="330" y="260" width="150" height="30" as="geometry" />
        </mxCell>
        <mxCell id="iHeQuaXSldQVGiFFThyH-29" value=":Available Plants" style="html=1;whiteSpace=wrap;" parent="1" vertex="1">
          <mxGeometry x="590" y="138" width="110" height="50" as="geometry" />
        </mxCell>
        <mxCell id="iHeQuaXSldQVGiFFThyH-30" value="" style="endArrow=open;endFill=1;endSize=12;html=1;rounded=0;entryX=0;entryY=0.5;entryDx=0;entryDy=0;dashed=1;" parent="1" target="iHeQuaXSldQVGiFFThyH-29" edge="1">
          <mxGeometry width="160" relative="1" as="geometry">
            <mxPoint x="510" y="162.76" as="sourcePoint" />
            <mxPoint x="650" y="162.76" as="targetPoint" />
            <Array as="points" />
          </mxGeometry>
        </mxCell>
        <mxCell id="iHeQuaXSldQVGiFFThyH-31" value="&amp;lt;&amp;lt;create&amp;gt;&amp;gt;" style="text;html=1;align=center;verticalAlign=middle;resizable=0;points=[];autosize=1;strokeColor=none;fillColor=none;" parent="1" vertex="1">
          <mxGeometry x="510" y="128" width="80" height="30" as="geometry" />
        </mxCell>
        <mxCell id="iHeQuaXSldQVGiFFThyH-32" value="" style="html=1;points=[[0,0,0,0,5],[0,1,0,0,-5],[1,0,0,0,5],[1,1,0,0,-5]];perimeter=orthogonalPerimeter;outlineConnect=0;targetShapes=umlLifeline;portConstraint=eastwest;newEdgeStyle={&quot;curved&quot;:0,&quot;rounded&quot;:0};" parent="1" vertex="1">
          <mxGeometry x="640" y="220" width="30" height="910" as="geometry" />
        </mxCell>
        <mxCell id="iHeQuaXSldQVGiFFThyH-34" style="edgeStyle=orthogonalEdgeStyle;rounded=0;orthogonalLoop=1;jettySize=auto;html=1;endArrow=none;endFill=0;dashed=1;" parent="1" edge="1">
          <mxGeometry relative="1" as="geometry">
            <mxPoint x="644.86" y="188" as="sourcePoint" />
            <mxPoint x="644.86" y="220" as="targetPoint" />
            <Array as="points">
              <mxPoint x="644.86" y="200" />
              <mxPoint x="644.86" y="200" />
            </Array>
          </mxGeometry>
        </mxCell>
        <mxCell id="iHeQuaXSldQVGiFFThyH-37" value="&amp;nbsp;Verifying" style="text;html=1;align=center;verticalAlign=middle;resizable=0;points=[];autosize=1;strokeColor=none;fillColor=none;" parent="1" vertex="1">
          <mxGeometry x="730" y="260" width="70" height="30" as="geometry" />
        </mxCell>
        <mxCell id="iHeQuaXSldQVGiFFThyH-38" value="" style="endArrow=classic;endFill=1;endSize=12;html=1;rounded=0;" parent="1" target="iHeQuaXSldQVGiFFThyH-32" edge="1">
          <mxGeometry width="160" relative="1" as="geometry">
            <mxPoint x="510" y="270" as="sourcePoint" />
            <mxPoint x="630" y="270" as="targetPoint" />
            <Array as="points">
              <mxPoint x="600" y="270" />
            </Array>
          </mxGeometry>
        </mxCell>
        <mxCell id="iHeQuaXSldQVGiFFThyH-39" value="Get Plants" style="text;html=1;align=center;verticalAlign=middle;resizable=0;points=[];autosize=1;strokeColor=none;fillColor=none;" parent="1" vertex="1">
          <mxGeometry x="520" y="245" width="80" height="30" as="geometry" />
        </mxCell>
        <mxCell id="iHeQuaXSldQVGiFFThyH-40" value="" style="endArrow=none;endFill=0;endSize=12;html=1;rounded=0;startArrow=open;startFill=0;dashed=1;" parent="1" target="iHeQuaXSldQVGiFFThyH-32" edge="1">
          <mxGeometry width="160" relative="1" as="geometry">
            <mxPoint x="510" y="300" as="sourcePoint" />
            <mxPoint x="630" y="300" as="targetPoint" />
            <Array as="points">
              <mxPoint x="580" y="300" />
            </Array>
          </mxGeometry>
        </mxCell>
        <mxCell id="iHeQuaXSldQVGiFFThyH-41" value="display available plants" style="text;html=1;align=center;verticalAlign=middle;resizable=0;points=[];autosize=1;strokeColor=none;fillColor=none;" parent="1" vertex="1">
          <mxGeometry x="500" y="275" width="150" height="30" as="geometry" />
        </mxCell>
        <mxCell id="iHeQuaXSldQVGiFFThyH-43" value="" style="endArrow=open;endFill=1;endSize=12;html=1;rounded=0;entryX=-0.011;entryY=0.598;entryDx=0;entryDy=0;dashed=1;entryPerimeter=0;" parent="1" target="iHeQuaXSldQVGiFFThyH-44" edge="1">
          <mxGeometry width="160" relative="1" as="geometry">
            <mxPoint x="670" y="380" as="sourcePoint" />
            <mxPoint x="750" y="380.24" as="targetPoint" />
            <Array as="points" />
          </mxGeometry>
        </mxCell>
        <mxCell id="iHeQuaXSldQVGiFFThyH-50" style="edgeStyle=orthogonalEdgeStyle;rounded=0;orthogonalLoop=1;jettySize=auto;html=1;endArrow=none;endFill=0;dashed=1;" parent="1" edge="1">
          <mxGeometry relative="1" as="geometry">
            <mxPoint x="812.5" y="400" as="sourcePoint" />
            <mxPoint x="817.5" y="440" as="targetPoint" />
            <Array as="points">
              <mxPoint x="818" y="400" />
              <mxPoint x="818" y="420" />
              <mxPoint x="818" y="420" />
            </Array>
          </mxGeometry>
        </mxCell>
        <mxCell id="iHeQuaXSldQVGiFFThyH-44" value=":Plant Cart" style="html=1;whiteSpace=wrap;" parent="1" vertex="1">
          <mxGeometry x="760" y="350" width="110" height="50" as="geometry" />
        </mxCell>
        <mxCell id="iHeQuaXSldQVGiFFThyH-46" value="&amp;lt;&amp;lt;create&amp;gt;&amp;gt;" style="text;html=1;align=center;verticalAlign=middle;resizable=0;points=[];autosize=1;strokeColor=none;fillColor=none;" parent="1" vertex="1">
          <mxGeometry x="670" y="350" width="80" height="30" as="geometry" />
        </mxCell>
        <mxCell id="iHeQuaXSldQVGiFFThyH-51" value="frame" style="shape=umlFrame;whiteSpace=wrap;html=1;pointerEvents=0;" parent="1" vertex="1">
          <mxGeometry x="235" y="200" width="470" height="120" as="geometry" />
        </mxCell>
        <mxCell id="iHeQuaXSldQVGiFFThyH-52" value="" style="html=1;points=[[0,0,0,0,5],[0,1,0,0,-5],[1,0,0,0,5],[1,1,0,0,-5]];perimeter=orthogonalPerimeter;outlineConnect=0;targetShapes=umlLifeline;portConstraint=eastwest;newEdgeStyle={&quot;curved&quot;:0,&quot;rounded&quot;:0};" parent="1" vertex="1">
          <mxGeometry x="800" y="440" width="30" height="680" as="geometry" />
        </mxCell>
        <mxCell id="iHeQuaXSldQVGiFFThyH-53" value="alt" style="shape=umlFrame;whiteSpace=wrap;html=1;pointerEvents=0;" parent="1" vertex="1">
          <mxGeometry x="225" y="410" width="650" height="200" as="geometry" />
        </mxCell>
        <mxCell id="iHeQuaXSldQVGiFFThyH-54" style="edgeStyle=orthogonalEdgeStyle;rounded=0;orthogonalLoop=1;jettySize=auto;html=1;entryX=1.001;entryY=0.751;entryDx=0;entryDy=0;entryPerimeter=0;" parent="1" source="iHeQuaXSldQVGiFFThyH-51" target="iHeQuaXSldQVGiFFThyH-51" edge="1">
          <mxGeometry relative="1" as="geometry">
            <mxPoint x="720" y="290" as="targetPoint" />
            <Array as="points">
              <mxPoint x="740" y="270" />
              <mxPoint x="740" y="290" />
            </Array>
          </mxGeometry>
        </mxCell>
        <mxCell id="iHeQuaXSldQVGiFFThyH-55" style="edgeStyle=orthogonalEdgeStyle;rounded=0;orthogonalLoop=1;jettySize=auto;html=1;entryX=1.001;entryY=0.474;entryDx=0;entryDy=0;entryPerimeter=0;exitX=0.999;exitY=0.35;exitDx=0;exitDy=0;exitPerimeter=0;" parent="1" source="iHeQuaXSldQVGiFFThyH-53" target="iHeQuaXSldQVGiFFThyH-53" edge="1">
          <mxGeometry relative="1" as="geometry">
            <mxPoint x="885" y="470" as="sourcePoint" />
            <mxPoint x="885" y="490" as="targetPoint" />
            <Array as="points">
              <mxPoint x="874" y="470" />
              <mxPoint x="900" y="470" />
              <mxPoint x="900" y="505" />
            </Array>
          </mxGeometry>
        </mxCell>
        <mxCell id="iHeQuaXSldQVGiFFThyH-56" value="&amp;nbsp;Verifying" style="text;html=1;align=center;verticalAlign=middle;resizable=0;points=[];autosize=1;strokeColor=none;fillColor=none;" parent="1" vertex="1">
          <mxGeometry x="900" y="460" width="70" height="30" as="geometry" />
        </mxCell>
        <mxCell id="iHeQuaXSldQVGiFFThyH-58" value="[if system&amp;nbsp;&lt;div&gt;user&amp;nbsp;&lt;span style=&quot;background-color: initial;&quot;&gt;wants&lt;/span&gt;&lt;div&gt;&lt;div&gt;&amp;nbsp;to purchase&lt;/div&gt;&lt;div&gt;&amp;nbsp;plants]&lt;/div&gt;&lt;/div&gt;&lt;/div&gt;" style="text;html=1;align=center;verticalAlign=middle;resizable=0;points=[];autosize=1;strokeColor=none;fillColor=none;" parent="1" vertex="1">
          <mxGeometry x="220" y="440" width="90" height="70" as="geometry" />
        </mxCell>
        <mxCell id="iHeQuaXSldQVGiFFThyH-59" value="" style="endArrow=open;endFill=1;endSize=12;html=1;rounded=0;dashed=1;" parent="1" edge="1">
          <mxGeometry width="160" relative="1" as="geometry">
            <mxPoint x="480" y="539.8" as="sourcePoint" />
            <mxPoint x="340" y="539.8" as="targetPoint" />
            <Array as="points">
              <mxPoint x="410" y="539.8" />
            </Array>
          </mxGeometry>
        </mxCell>
        <mxCell id="iHeQuaXSldQVGiFFThyH-60" value="confims choosen plant" style="text;html=1;align=center;verticalAlign=middle;resizable=0;points=[];autosize=1;strokeColor=none;fillColor=none;" parent="1" vertex="1">
          <mxGeometry x="340" y="505" width="140" height="30" as="geometry" />
        </mxCell>
        <mxCell id="iHeQuaXSldQVGiFFThyH-62" value="" style="endArrow=classic;endFill=1;endSize=12;html=1;rounded=0;" parent="1" edge="1">
          <mxGeometry width="160" relative="1" as="geometry">
            <mxPoint x="340" y="445" as="sourcePoint" />
            <mxPoint x="480" y="445" as="targetPoint" />
            <Array as="points">
              <mxPoint x="430" y="445" />
            </Array>
          </mxGeometry>
        </mxCell>
        <mxCell id="iHeQuaXSldQVGiFFThyH-63" value="Select preferred plants" style="text;html=1;align=center;verticalAlign=middle;resizable=0;points=[];autosize=1;strokeColor=none;fillColor=none;" parent="1" vertex="1">
          <mxGeometry x="335" y="415" width="140" height="30" as="geometry" />
        </mxCell>
        <mxCell id="iHeQuaXSldQVGiFFThyH-65" value="" style="endArrow=none;dashed=1;html=1;rounded=0;entryX=1.004;entryY=0.603;entryDx=0;entryDy=0;entryPerimeter=0;targetPerimeterSpacing=-4;endSize=10;sourcePerimeterSpacing=-5;startSize=10;exitX=0.001;exitY=0.599;exitDx=0;exitDy=0;exitPerimeter=0;" parent="1" edge="1">
          <mxGeometry width="50" height="50" relative="1" as="geometry">
            <mxPoint x="224.01999999999998" y="549.9999999999999" as="sourcePoint" />
            <mxPoint x="875.9699999999999" y="550.8" as="targetPoint" />
          </mxGeometry>
        </mxCell>
        <mxCell id="iHeQuaXSldQVGiFFThyH-67" value="" style="endArrow=classic;endFill=1;endSize=12;html=1;rounded=0;" parent="1" edge="1">
          <mxGeometry width="160" relative="1" as="geometry">
            <mxPoint x="510" y="460" as="sourcePoint" />
            <mxPoint x="640" y="460" as="targetPoint" />
            <Array as="points">
              <mxPoint x="600" y="460" />
            </Array>
          </mxGeometry>
        </mxCell>
        <mxCell id="iHeQuaXSldQVGiFFThyH-68" value="Select preferred plants" style="text;html=1;align=center;verticalAlign=middle;resizable=0;points=[];autosize=1;strokeColor=none;fillColor=none;" parent="1" vertex="1">
          <mxGeometry x="505" y="430" width="140" height="30" as="geometry" />
        </mxCell>
        <mxCell id="iHeQuaXSldQVGiFFThyH-69" value="" style="endArrow=open;endFill=1;endSize=12;html=1;rounded=0;dashed=1;entryX=0.039;entryY=0.999;entryDx=0;entryDy=0;entryPerimeter=0;" parent="1" target="iHeQuaXSldQVGiFFThyH-70" edge="1">
          <mxGeometry width="160" relative="1" as="geometry">
            <mxPoint x="635" y="520.24" as="sourcePoint" />
            <mxPoint x="505" y="520" as="targetPoint" />
            <Array as="points">
              <mxPoint x="575" y="520" />
            </Array>
          </mxGeometry>
        </mxCell>
        <mxCell id="iHeQuaXSldQVGiFFThyH-70" value="confims choosen plant" style="text;html=1;align=center;verticalAlign=middle;resizable=0;points=[];autosize=1;strokeColor=none;fillColor=none;" parent="1" vertex="1">
          <mxGeometry x="505" y="490" width="140" height="30" as="geometry" />
        </mxCell>
        <mxCell id="iHeQuaXSldQVGiFFThyH-71" value="[else]" style="text;html=1;align=center;verticalAlign=middle;resizable=0;points=[];autosize=1;strokeColor=none;fillColor=none;" parent="1" vertex="1">
          <mxGeometry x="225" y="550" width="50" height="30" as="geometry" />
        </mxCell>
        <mxCell id="iHeQuaXSldQVGiFFThyH-72" value="" style="endArrow=open;endFill=1;endSize=12;html=1;rounded=0;dashed=1;" parent="1" edge="1">
          <mxGeometry width="160" relative="1" as="geometry">
            <mxPoint x="480" y="600" as="sourcePoint" />
            <mxPoint x="340" y="600" as="targetPoint" />
            <Array as="points">
              <mxPoint x="410" y="600" />
            </Array>
          </mxGeometry>
        </mxCell>
        <mxCell id="iHeQuaXSldQVGiFFThyH-73" value="" style="endArrow=open;endFill=1;endSize=12;html=1;rounded=0;dashed=1;" parent="1" edge="1">
          <mxGeometry width="160" relative="1" as="geometry">
            <mxPoint x="640" y="580.24" as="sourcePoint" />
            <mxPoint x="510" y="580" as="targetPoint" />
            <Array as="points">
              <mxPoint x="580" y="580" />
            </Array>
          </mxGeometry>
        </mxCell>
        <mxCell id="iHeQuaXSldQVGiFFThyH-74" value="Displayed Plants" style="text;html=1;align=center;verticalAlign=middle;resizable=0;points=[];autosize=1;strokeColor=none;fillColor=none;" parent="1" vertex="1">
          <mxGeometry x="520" y="555" width="110" height="30" as="geometry" />
        </mxCell>
        <mxCell id="iHeQuaXSldQVGiFFThyH-75" value="Displayed Plants" style="text;html=1;align=center;verticalAlign=middle;resizable=0;points=[];autosize=1;strokeColor=none;fillColor=none;" parent="1" vertex="1">
          <mxGeometry x="355" y="570" width="110" height="30" as="geometry" />
        </mxCell>
        <mxCell id="iHeQuaXSldQVGiFFThyH-77" value="" style="endArrow=classic;endFill=1;endSize=12;html=1;rounded=0;" parent="1" edge="1">
          <mxGeometry width="160" relative="1" as="geometry">
            <mxPoint x="670" y="474.6" as="sourcePoint" />
            <mxPoint x="800" y="474.6" as="targetPoint" />
            <Array as="points">
              <mxPoint x="760" y="474.6" />
            </Array>
          </mxGeometry>
        </mxCell>
        <mxCell id="iHeQuaXSldQVGiFFThyH-78" value="" style="endArrow=open;endFill=1;endSize=12;html=1;rounded=0;dashed=1;" parent="1" edge="1">
          <mxGeometry width="160" relative="1" as="geometry">
            <mxPoint x="800" y="505" as="sourcePoint" />
            <mxPoint x="670" y="504.76" as="targetPoint" />
            <Array as="points">
              <mxPoint x="740" y="504.76" />
            </Array>
          </mxGeometry>
        </mxCell>
        <mxCell id="iHeQuaXSldQVGiFFThyH-79" value="Select preferred plants" style="text;html=1;align=center;verticalAlign=middle;resizable=0;points=[];autosize=1;strokeColor=none;fillColor=none;" parent="1" vertex="1">
          <mxGeometry x="660" y="445" width="140" height="30" as="geometry" />
        </mxCell>
        <mxCell id="iHeQuaXSldQVGiFFThyH-80" value="confims choosen plant" style="text;html=1;align=center;verticalAlign=middle;resizable=0;points=[];autosize=1;strokeColor=none;fillColor=none;" parent="1" vertex="1">
          <mxGeometry x="660" y="475" width="140" height="30" as="geometry" />
        </mxCell>
        <mxCell id="iHeQuaXSldQVGiFFThyH-81" value="" style="endArrow=open;endFill=1;endSize=12;html=1;rounded=0;" parent="1" edge="1">
          <mxGeometry width="160" relative="1" as="geometry">
            <mxPoint x="170" y="649.43" as="sourcePoint" />
            <mxPoint x="310" y="649.43" as="targetPoint" />
            <Array as="points">
              <mxPoint x="260" y="649.43" />
            </Array>
          </mxGeometry>
        </mxCell>
        <mxCell id="iHeQuaXSldQVGiFFThyH-82" value="Initiate purchase process" style="text;html=1;align=center;verticalAlign=middle;resizable=0;points=[];autosize=1;strokeColor=none;fillColor=none;" parent="1" vertex="1">
          <mxGeometry x="160" y="615" width="160" height="30" as="geometry" />
        </mxCell>
        <mxCell id="iHeQuaXSldQVGiFFThyH-84" value="" style="endArrow=classic;endFill=1;endSize=12;html=1;rounded=0;" parent="1" edge="1">
          <mxGeometry width="160" relative="1" as="geometry">
            <mxPoint x="340" y="665" as="sourcePoint" />
            <mxPoint x="480" y="665" as="targetPoint" />
            <Array as="points">
              <mxPoint x="430" y="665" />
            </Array>
          </mxGeometry>
        </mxCell>
        <mxCell id="iHeQuaXSldQVGiFFThyH-85" value="Initiate purchase process" style="text;html=1;align=center;verticalAlign=middle;resizable=0;points=[];autosize=1;strokeColor=none;fillColor=none;" parent="1" vertex="1">
          <mxGeometry x="330" y="630" width="160" height="30" as="geometry" />
        </mxCell>
        <mxCell id="iHeQuaXSldQVGiFFThyH-86" value="" style="endArrow=classic;endFill=1;endSize=12;html=1;rounded=0;" parent="1" edge="1">
          <mxGeometry width="160" relative="1" as="geometry">
            <mxPoint x="510" y="680" as="sourcePoint" />
            <mxPoint x="640" y="680" as="targetPoint" />
            <Array as="points">
              <mxPoint x="600" y="680" />
            </Array>
          </mxGeometry>
        </mxCell>
        <mxCell id="iHeQuaXSldQVGiFFThyH-87" value="Initiate purchase&lt;div&gt;&amp;nbsp;process&lt;/div&gt;" style="text;html=1;align=center;verticalAlign=middle;resizable=0;points=[];autosize=1;strokeColor=none;fillColor=none;" parent="1" vertex="1">
          <mxGeometry x="510" y="645" width="110" height="40" as="geometry" />
        </mxCell>
        <mxCell id="iHeQuaXSldQVGiFFThyH-88" value="" style="endArrow=classic;endFill=1;endSize=12;html=1;rounded=0;" parent="1" edge="1">
          <mxGeometry width="160" relative="1" as="geometry">
            <mxPoint x="670" y="690" as="sourcePoint" />
            <mxPoint x="800" y="690" as="targetPoint" />
            <Array as="points">
              <mxPoint x="760" y="690" />
            </Array>
          </mxGeometry>
        </mxCell>
        <mxCell id="iHeQuaXSldQVGiFFThyH-89" value="Initiate purchase&lt;div&gt;&amp;nbsp;process&lt;/div&gt;" style="text;html=1;align=center;verticalAlign=middle;resizable=0;points=[];autosize=1;strokeColor=none;fillColor=none;" parent="1" vertex="1">
          <mxGeometry x="675" y="650" width="110" height="40" as="geometry" />
        </mxCell>
        <mxCell id="iHeQuaXSldQVGiFFThyH-91" value="" style="endArrow=open;endFill=1;endSize=12;html=1;rounded=0;entryX=-0.011;entryY=0.598;entryDx=0;entryDy=0;dashed=1;entryPerimeter=0;" parent="1" edge="1">
          <mxGeometry width="160" relative="1" as="geometry">
            <mxPoint x="830" y="640" as="sourcePoint" />
            <mxPoint x="919" y="640" as="targetPoint" />
            <Array as="points" />
          </mxGeometry>
        </mxCell>
        <mxCell id="iHeQuaXSldQVGiFFThyH-92" value="" style="html=1;points=[[0,0,0,0,5],[0,1,0,0,-5],[1,0,0,0,5],[1,1,0,0,-5]];perimeter=orthogonalPerimeter;outlineConnect=0;targetShapes=umlLifeline;portConstraint=eastwest;newEdgeStyle={&quot;curved&quot;:0,&quot;rounded&quot;:0};" parent="1" vertex="1">
          <mxGeometry x="960" y="700" width="30" height="430" as="geometry" />
        </mxCell>
        <mxCell id="iHeQuaXSldQVGiFFThyH-95" style="edgeStyle=orthogonalEdgeStyle;rounded=0;orthogonalLoop=1;jettySize=auto;html=1;endArrow=none;endFill=0;dashed=1;" parent="1" source="iHeQuaXSldQVGiFFThyH-93" target="iHeQuaXSldQVGiFFThyH-92" edge="1">
          <mxGeometry relative="1" as="geometry">
            <Array as="points">
              <mxPoint x="975" y="840" />
              <mxPoint x="975" y="840" />
            </Array>
          </mxGeometry>
        </mxCell>
        <mxCell id="iHeQuaXSldQVGiFFThyH-93" value=":Plant Purchase Transaction" style="html=1;whiteSpace=wrap;" parent="1" vertex="1">
          <mxGeometry x="920" y="620" width="110" height="50" as="geometry" />
        </mxCell>
        <mxCell id="iHeQuaXSldQVGiFFThyH-96" value="&amp;lt;&amp;lt;create&amp;gt;&amp;gt;" style="text;html=1;align=center;verticalAlign=middle;resizable=0;points=[];autosize=1;strokeColor=none;fillColor=none;" parent="1" vertex="1">
          <mxGeometry x="830" y="610" width="80" height="30" as="geometry" />
        </mxCell>
        <mxCell id="iHeQuaXSldQVGiFFThyH-97" value="" style="endArrow=classic;endFill=1;endSize=12;html=1;rounded=0;" parent="1" edge="1">
          <mxGeometry width="160" relative="1" as="geometry">
            <mxPoint x="830" y="710" as="sourcePoint" />
            <mxPoint x="960" y="710" as="targetPoint" />
            <Array as="points">
              <mxPoint x="920" y="710" />
            </Array>
          </mxGeometry>
        </mxCell>
        <mxCell id="iHeQuaXSldQVGiFFThyH-98" value="Initiate purchase&lt;div&gt;&amp;nbsp;process&lt;/div&gt;" style="text;html=1;align=center;verticalAlign=middle;resizable=0;points=[];autosize=1;strokeColor=none;fillColor=none;" parent="1" vertex="1">
          <mxGeometry x="840" y="670" width="110" height="40" as="geometry" />
        </mxCell>
        <mxCell id="iHeQuaXSldQVGiFFThyH-99" value="" style="endArrow=open;endFill=1;endSize=12;html=1;rounded=0;dashed=1;" parent="1" edge="1">
          <mxGeometry width="160" relative="1" as="geometry">
            <mxPoint x="960" y="750.24" as="sourcePoint" />
            <mxPoint x="830" y="750" as="targetPoint" />
            <Array as="points">
              <mxPoint x="900" y="750" />
            </Array>
          </mxGeometry>
        </mxCell>
        <mxCell id="iHeQuaXSldQVGiFFThyH-100" value="Display Payment&lt;span style=&quot;background-color: initial;&quot;&gt;&amp;nbsp;Form&lt;/span&gt;" style="text;html=1;align=center;verticalAlign=middle;resizable=0;points=[];autosize=1;strokeColor=none;fillColor=none;" parent="1" vertex="1">
          <mxGeometry x="825" y="715" width="140" height="30" as="geometry" />
        </mxCell>
        <mxCell id="iHeQuaXSldQVGiFFThyH-101" value="" style="endArrow=open;endFill=1;endSize=12;html=1;rounded=0;dashed=1;" parent="1" edge="1">
          <mxGeometry width="160" relative="1" as="geometry">
            <mxPoint x="800" y="770.24" as="sourcePoint" />
            <mxPoint x="670" y="770" as="targetPoint" />
            <Array as="points">
              <mxPoint x="740" y="770" />
            </Array>
          </mxGeometry>
        </mxCell>
        <mxCell id="iHeQuaXSldQVGiFFThyH-102" value="Display Payment&lt;div&gt;&amp;nbsp;Form&lt;/div&gt;" style="text;html=1;align=center;verticalAlign=middle;resizable=0;points=[];autosize=1;strokeColor=none;fillColor=none;" parent="1" vertex="1">
          <mxGeometry x="680" y="730" width="110" height="40" as="geometry" />
        </mxCell>
        <mxCell id="iHeQuaXSldQVGiFFThyH-103" value="" style="endArrow=open;endFill=1;endSize=12;html=1;rounded=0;dashed=1;" parent="1" edge="1">
          <mxGeometry width="160" relative="1" as="geometry">
            <mxPoint x="640" y="785.04" as="sourcePoint" />
            <mxPoint x="510" y="784.8" as="targetPoint" />
            <Array as="points">
              <mxPoint x="580" y="784.8" />
            </Array>
          </mxGeometry>
        </mxCell>
        <mxCell id="iHeQuaXSldQVGiFFThyH-104" value="Display Payment&lt;div&gt;&amp;nbsp;Form&lt;/div&gt;" style="text;html=1;align=center;verticalAlign=middle;resizable=0;points=[];autosize=1;strokeColor=none;fillColor=none;" parent="1" vertex="1">
          <mxGeometry x="525" y="740" width="110" height="40" as="geometry" />
        </mxCell>
        <mxCell id="iHeQuaXSldQVGiFFThyH-105" value="" style="endArrow=open;endFill=1;endSize=12;html=1;rounded=0;dashed=1;" parent="1" target="iHeQuaXSldQVGiFFThyH-5" edge="1">
          <mxGeometry width="160" relative="1" as="geometry">
            <mxPoint x="480" y="810.24" as="sourcePoint" />
            <mxPoint x="350" y="810" as="targetPoint" />
            <Array as="points">
              <mxPoint x="420" y="810" />
            </Array>
          </mxGeometry>
        </mxCell>
        <mxCell id="iHeQuaXSldQVGiFFThyH-106" value="Display Payment&lt;div&gt;&amp;nbsp;Form&lt;/div&gt;" style="text;html=1;align=center;verticalAlign=middle;resizable=0;points=[];autosize=1;strokeColor=none;fillColor=none;" parent="1" vertex="1">
          <mxGeometry x="360" y="770" width="110" height="40" as="geometry" />
        </mxCell>
        <mxCell id="iHeQuaXSldQVGiFFThyH-107" value="" style="endArrow=open;endFill=1;endSize=12;html=1;rounded=0;" parent="1" edge="1">
          <mxGeometry width="160" relative="1" as="geometry">
            <mxPoint x="170" y="850" as="sourcePoint" />
            <mxPoint x="310" y="850" as="targetPoint" />
            <Array as="points">
              <mxPoint x="260" y="850" />
            </Array>
          </mxGeometry>
        </mxCell>
        <mxCell id="iHeQuaXSldQVGiFFThyH-108" value="Fill out the payment&amp;nbsp;&lt;div&gt;form&lt;/div&gt;" style="text;html=1;align=center;verticalAlign=middle;resizable=0;points=[];autosize=1;strokeColor=none;fillColor=none;" parent="1" vertex="1">
          <mxGeometry x="170" y="810" width="130" height="40" as="geometry" />
        </mxCell>
        <mxCell id="iHeQuaXSldQVGiFFThyH-109" value="" style="endArrow=classic;endFill=1;endSize=12;html=1;rounded=0;" parent="1" edge="1">
          <mxGeometry width="160" relative="1" as="geometry">
            <mxPoint x="340" y="870" as="sourcePoint" />
            <mxPoint x="480" y="870" as="targetPoint" />
            <Array as="points">
              <mxPoint x="430" y="870" />
            </Array>
          </mxGeometry>
        </mxCell>
        <mxCell id="iHeQuaXSldQVGiFFThyH-111" value="Filled payment form" style="text;html=1;align=center;verticalAlign=middle;resizable=0;points=[];autosize=1;strokeColor=none;fillColor=none;" parent="1" vertex="1">
          <mxGeometry x="340" y="840" width="130" height="30" as="geometry" />
        </mxCell>
        <mxCell id="iHeQuaXSldQVGiFFThyH-112" value="" style="endArrow=classic;endFill=1;endSize=12;html=1;rounded=0;" parent="1" edge="1">
          <mxGeometry width="160" relative="1" as="geometry">
            <mxPoint x="510" y="894.58" as="sourcePoint" />
            <mxPoint x="640" y="894.58" as="targetPoint" />
            <Array as="points">
              <mxPoint x="600" y="894.58" />
            </Array>
          </mxGeometry>
        </mxCell>
        <mxCell id="iHeQuaXSldQVGiFFThyH-113" value="Filled payment form" style="text;html=1;align=center;verticalAlign=middle;resizable=0;points=[];autosize=1;strokeColor=none;fillColor=none;" parent="1" vertex="1">
          <mxGeometry x="505" y="870" width="130" height="30" as="geometry" />
        </mxCell>
        <mxCell id="iHeQuaXSldQVGiFFThyH-114" value="" style="endArrow=classic;endFill=1;endSize=12;html=1;rounded=0;" parent="1" edge="1">
          <mxGeometry width="160" relative="1" as="geometry">
            <mxPoint x="670" y="920" as="sourcePoint" />
            <mxPoint x="800" y="920" as="targetPoint" />
            <Array as="points">
              <mxPoint x="760" y="920" />
            </Array>
          </mxGeometry>
        </mxCell>
        <mxCell id="iHeQuaXSldQVGiFFThyH-115" value="Filled payment form" style="text;html=1;align=center;verticalAlign=middle;resizable=0;points=[];autosize=1;strokeColor=none;fillColor=none;" parent="1" vertex="1">
          <mxGeometry x="670" y="890" width="130" height="30" as="geometry" />
        </mxCell>
        <mxCell id="iHeQuaXSldQVGiFFThyH-116" value="" style="endArrow=classic;endFill=1;endSize=12;html=1;rounded=0;" parent="1" edge="1">
          <mxGeometry width="160" relative="1" as="geometry">
            <mxPoint x="830" y="940" as="sourcePoint" />
            <mxPoint x="960" y="940" as="targetPoint" />
            <Array as="points">
              <mxPoint x="920" y="940" />
            </Array>
          </mxGeometry>
        </mxCell>
        <mxCell id="iHeQuaXSldQVGiFFThyH-117" value="Filled payment form" style="text;html=1;align=center;verticalAlign=middle;resizable=0;points=[];autosize=1;strokeColor=none;fillColor=none;" parent="1" vertex="1">
          <mxGeometry x="825" y="910" width="130" height="30" as="geometry" />
        </mxCell>
        <mxCell id="iHeQuaXSldQVGiFFThyH-119" value="" style="endArrow=open;endFill=1;endSize=12;html=1;rounded=0;dashed=1;" parent="1" edge="1">
          <mxGeometry width="160" relative="1" as="geometry">
            <mxPoint x="960" y="1000.24" as="sourcePoint" />
            <mxPoint x="830" y="1000" as="targetPoint" />
            <Array as="points">
              <mxPoint x="900" y="1000" />
            </Array>
          </mxGeometry>
        </mxCell>
        <mxCell id="iHeQuaXSldQVGiFFThyH-120" value="Purchase confirmed&amp;nbsp;&lt;div&gt;receipt&lt;/div&gt;" style="text;html=1;align=center;verticalAlign=middle;resizable=0;points=[];autosize=1;strokeColor=none;fillColor=none;" parent="1" vertex="1">
          <mxGeometry x="835" y="960" width="130" height="40" as="geometry" />
        </mxCell>
        <mxCell id="iHeQuaXSldQVGiFFThyH-123" value="" style="endArrow=open;endFill=1;endSize=12;html=1;rounded=0;dashed=1;" parent="1" edge="1">
          <mxGeometry width="160" relative="1" as="geometry">
            <mxPoint x="800" y="1020.1" as="sourcePoint" />
            <mxPoint x="670" y="1019.86" as="targetPoint" />
            <Array as="points">
              <mxPoint x="740" y="1019.86" />
            </Array>
          </mxGeometry>
        </mxCell>
        <mxCell id="iHeQuaXSldQVGiFFThyH-124" value="Purchase confirmed&amp;nbsp;&lt;div&gt;receipt&lt;/div&gt;" style="text;html=1;align=center;verticalAlign=middle;resizable=0;points=[];autosize=1;strokeColor=none;fillColor=none;" parent="1" vertex="1">
          <mxGeometry x="670" y="980" width="130" height="40" as="geometry" />
        </mxCell>
        <mxCell id="iHeQuaXSldQVGiFFThyH-125" value="" style="endArrow=open;endFill=1;endSize=12;html=1;rounded=0;dashed=1;" parent="1" edge="1">
          <mxGeometry width="160" relative="1" as="geometry">
            <mxPoint x="640" y="1040.24" as="sourcePoint" />
            <mxPoint x="510" y="1040.0000000000002" as="targetPoint" />
            <Array as="points">
              <mxPoint x="580" y="1040.0000000000002" />
            </Array>
          </mxGeometry>
        </mxCell>
        <mxCell id="iHeQuaXSldQVGiFFThyH-126" value="Purchase confirmed&amp;nbsp;&lt;div&gt;receipt&lt;/div&gt;" style="text;html=1;align=center;verticalAlign=middle;resizable=0;points=[];autosize=1;strokeColor=none;fillColor=none;" parent="1" vertex="1">
          <mxGeometry x="515" y="1000" width="130" height="40" as="geometry" />
        </mxCell>
        <mxCell id="iHeQuaXSldQVGiFFThyH-127" value="" style="endArrow=open;endFill=1;endSize=12;html=1;rounded=0;dashed=1;" parent="1" target="iHeQuaXSldQVGiFFThyH-5" edge="1">
          <mxGeometry width="160" relative="1" as="geometry">
            <mxPoint x="480" y="1050.24" as="sourcePoint" />
            <mxPoint x="350" y="1050.0000000000002" as="targetPoint" />
            <Array as="points">
              <mxPoint x="420" y="1050.0000000000002" />
            </Array>
          </mxGeometry>
        </mxCell>
        <mxCell id="iHeQuaXSldQVGiFFThyH-128" value="Purchase confirmed&amp;nbsp;&lt;div&gt;receipt&lt;/div&gt;" style="text;html=1;align=center;verticalAlign=middle;resizable=0;points=[];autosize=1;strokeColor=none;fillColor=none;" parent="1" vertex="1">
          <mxGeometry x="350" y="1010" width="130" height="40" as="geometry" />
        </mxCell>
        <mxCell id="iHeQuaXSldQVGiFFThyH-160" value="" style="endArrow=none;dashed=1;html=1;rounded=0;" parent="1" edge="1">
          <mxGeometry width="50" height="50" relative="1" as="geometry">
            <mxPoint x="154.58" y="1170" as="sourcePoint" />
            <mxPoint x="154.72" y="1230" as="targetPoint" />
          </mxGeometry>
        </mxCell>
        <mxCell id="iHeQuaXSldQVGiFFThyH-161" value="" style="endArrow=none;dashed=1;html=1;rounded=0;" parent="1" edge="1">
          <mxGeometry width="50" height="50" relative="1" as="geometry">
            <mxPoint x="324.58000000000004" y="1160" as="sourcePoint" />
            <mxPoint x="324.72" y="1220" as="targetPoint" />
          </mxGeometry>
        </mxCell>
        <mxCell id="iHeQuaXSldQVGiFFThyH-162" value="" style="endArrow=none;dashed=1;html=1;rounded=0;" parent="1" edge="1">
          <mxGeometry width="50" height="50" relative="1" as="geometry">
            <mxPoint x="494.58000000000004" y="1140" as="sourcePoint" />
            <mxPoint x="494.72" y="1200" as="targetPoint" />
          </mxGeometry>
        </mxCell>
        <mxCell id="iHeQuaXSldQVGiFFThyH-163" value="" style="endArrow=none;dashed=1;html=1;rounded=0;" parent="1" edge="1">
          <mxGeometry width="50" height="50" relative="1" as="geometry">
            <mxPoint x="654.58" y="1130" as="sourcePoint" />
            <mxPoint x="654.72" y="1190" as="targetPoint" />
          </mxGeometry>
        </mxCell>
        <mxCell id="iHeQuaXSldQVGiFFThyH-165" value="" style="endArrow=none;dashed=1;html=1;rounded=0;" parent="1" source="iHeQuaXSldQVGiFFThyH-167" edge="1">
          <mxGeometry width="50" height="50" relative="1" as="geometry">
            <mxPoint x="974.76" y="1130" as="sourcePoint" />
            <mxPoint x="974.9" y="1190" as="targetPoint" />
          </mxGeometry>
        </mxCell>
        <mxCell id="iHeQuaXSldQVGiFFThyH-166" value="" style="endArrow=none;dashed=1;html=1;rounded=0;" parent="1" edge="1">
          <mxGeometry width="50" height="50" relative="1" as="geometry">
            <mxPoint x="1145" y="1420" as="sourcePoint" />
            <mxPoint x="1135" y="1420" as="targetPoint" />
          </mxGeometry>
        </mxCell>
        <mxCell id="iHeQuaXSldQVGiFFThyH-171" value="" style="endArrow=none;dashed=1;html=1;rounded=0;" parent="1" edge="1">
          <mxGeometry width="50" height="50" relative="1" as="geometry">
            <mxPoint x="814.58" y="1120" as="sourcePoint" />
            <mxPoint x="814.6966666666665" y="1170" as="targetPoint" />
          </mxGeometry>
        </mxCell>
        <mxCell id="iHeQuaXSldQVGiFFThyH-170" value="" style="shape=umlDestroy;whiteSpace=wrap;html=1;strokeWidth=3;targetShapes=umlLifeline;" parent="1" vertex="1">
          <mxGeometry x="805" y="1170" width="20" height="20" as="geometry" />
        </mxCell>
        <mxCell id="6kBX4SWvy2YTbSGZqDKI-5" value="" style="endArrow=none;dashed=1;html=1;rounded=0;" parent="1" target="iHeQuaXSldQVGiFFThyH-167" edge="1">
          <mxGeometry width="50" height="50" relative="1" as="geometry">
            <mxPoint x="974.76" y="1130" as="sourcePoint" />
            <mxPoint x="974.9" y="1190" as="targetPoint" />
          </mxGeometry>
        </mxCell>
        <mxCell id="iHeQuaXSldQVGiFFThyH-167" value="" style="shape=umlDestroy;whiteSpace=wrap;html=1;strokeWidth=3;targetShapes=umlLifeline;" parent="1" vertex="1">
          <mxGeometry x="965" y="1180" width="20" height="20" as="geometry" />
        </mxCell>
      </root>
    </mxGraphModel>
  </diagram>
  <diagram id="FuKOq1PVLcTFlitNbO8i" name="Page-2">
    <mxGraphModel dx="1002" dy="577" grid="1" gridSize="10" guides="1" tooltips="1" connect="1" arrows="1" fold="1" page="1" pageScale="1" pageWidth="4681" pageHeight="3300" math="0" shadow="0">
      <root>
        <mxCell id="0" />
        <mxCell id="1" parent="0" />
        <mxCell id="RcAz8te14pZP037oVRHO-1" value="" style="html=1;points=[[0,0,0,0,5],[0,1,0,0,-5],[1,0,0,0,5],[1,1,0,0,-5]];perimeter=orthogonalPerimeter;outlineConnect=0;targetShapes=umlLifeline;portConstraint=eastwest;newEdgeStyle={&quot;curved&quot;:0,&quot;rounded&quot;:0};" parent="1" vertex="1">
          <mxGeometry x="140" y="150" width="30" height="1200" as="geometry" />
        </mxCell>
        <mxCell id="RcAz8te14pZP037oVRHO-2" style="edgeStyle=orthogonalEdgeStyle;rounded=0;orthogonalLoop=1;jettySize=auto;html=1;endArrow=none;endFill=0;dashed=1;endSize=16;targetPerimeterSpacing=-1;sourcePerimeterSpacing=24;" parent="1" source="RcAz8te14pZP037oVRHO-3" target="RcAz8te14pZP037oVRHO-1" edge="1">
          <mxGeometry relative="1" as="geometry">
            <Array as="points">
              <mxPoint x="155" y="280" />
              <mxPoint x="155" y="280" />
            </Array>
          </mxGeometry>
        </mxCell>
        <mxCell id="RcAz8te14pZP037oVRHO-3" value="System User" style="shape=umlActor;verticalLabelPosition=bottom;verticalAlign=top;html=1;" parent="1" vertex="1">
          <mxGeometry x="140" y="10" width="30" height="60" as="geometry" />
        </mxCell>
        <mxCell id="RcAz8te14pZP037oVRHO-4" style="edgeStyle=orthogonalEdgeStyle;rounded=0;orthogonalLoop=1;jettySize=auto;html=1;endArrow=none;endFill=0;dashed=1;" parent="1" target="RcAz8te14pZP037oVRHO-7" edge="1">
          <mxGeometry relative="1" as="geometry">
            <mxPoint x="330" y="70" as="sourcePoint" />
            <mxPoint x="300" y="470" as="targetPoint" />
            <Array as="points">
              <mxPoint x="325" y="70" />
            </Array>
          </mxGeometry>
        </mxCell>
        <mxCell id="RcAz8te14pZP037oVRHO-5" value=":PurchasePlant UI" style="html=1;whiteSpace=wrap;" parent="1" vertex="1">
          <mxGeometry x="260" y="20" width="110" height="50" as="geometry" />
        </mxCell>
        <mxCell id="RcAz8te14pZP037oVRHO-6" value=":Plants Cataloge" style="html=1;whiteSpace=wrap;" parent="1" vertex="1">
          <mxGeometry x="440" y="20" width="110" height="50" as="geometry" />
        </mxCell>
        <mxCell id="RcAz8te14pZP037oVRHO-7" value="" style="html=1;points=[[0,0,0,0,5],[0,1,0,0,-5],[1,0,0,0,5],[1,1,0,0,-5]];perimeter=orthogonalPerimeter;outlineConnect=0;targetShapes=umlLifeline;portConstraint=eastwest;newEdgeStyle={&quot;curved&quot;:0,&quot;rounded&quot;:0};" parent="1" vertex="1">
          <mxGeometry x="310" y="150" width="30" height="1200" as="geometry" />
        </mxCell>
        <mxCell id="RcAz8te14pZP037oVRHO-8" value="" style="endArrow=open;endFill=1;endSize=12;html=1;rounded=0;" parent="1" source="RcAz8te14pZP037oVRHO-1" target="RcAz8te14pZP037oVRHO-7" edge="1">
          <mxGeometry width="160" relative="1" as="geometry">
            <mxPoint x="310" y="120" as="sourcePoint" />
            <mxPoint x="330" y="190" as="targetPoint" />
            <Array as="points">
              <mxPoint x="260" y="190" />
            </Array>
          </mxGeometry>
        </mxCell>
        <mxCell id="RcAz8te14pZP037oVRHO-9" value="Browse Plants" style="text;html=1;align=center;verticalAlign=middle;resizable=0;points=[];autosize=1;strokeColor=none;fillColor=none;" parent="1" vertex="1">
          <mxGeometry x="170" y="158" width="100" height="30" as="geometry" />
        </mxCell>
        <mxCell id="RcAz8te14pZP037oVRHO-10" value="" style="endArrow=open;endFill=1;endSize=12;html=1;rounded=0;" parent="1" edge="1">
          <mxGeometry width="160" relative="1" as="geometry">
            <mxPoint x="170" y="360" as="sourcePoint" />
            <mxPoint x="310" y="360" as="targetPoint" />
            <Array as="points">
              <mxPoint x="260" y="360" />
            </Array>
          </mxGeometry>
        </mxCell>
        <mxCell id="RcAz8te14pZP037oVRHO-11" value="Select Preferable Plants" style="text;html=1;align=center;verticalAlign=middle;resizable=0;points=[];autosize=1;strokeColor=none;fillColor=none;" parent="1" vertex="1">
          <mxGeometry x="160" y="320" width="150" height="30" as="geometry" />
        </mxCell>
        <mxCell id="RcAz8te14pZP037oVRHO-12" value="" style="html=1;points=[[0,0,0,0,5],[0,1,0,0,-5],[1,0,0,0,5],[1,1,0,0,-5]];perimeter=orthogonalPerimeter;outlineConnect=0;targetShapes=umlLifeline;portConstraint=eastwest;newEdgeStyle={&quot;curved&quot;:0,&quot;rounded&quot;:0};" parent="1" vertex="1">
          <mxGeometry x="480" y="150" width="30" height="1190" as="geometry" />
        </mxCell>
        <mxCell id="RcAz8te14pZP037oVRHO-13" style="edgeStyle=orthogonalEdgeStyle;rounded=0;orthogonalLoop=1;jettySize=auto;html=1;endArrow=none;endFill=0;dashed=1;exitX=0.455;exitY=1;exitDx=0;exitDy=0;exitPerimeter=0;" parent="1" edge="1">
          <mxGeometry relative="1" as="geometry">
            <mxPoint x="494.8500000000001" y="70.00000000000003" as="sourcePoint" />
            <mxPoint x="494.8" y="150" as="targetPoint" />
            <Array as="points">
              <mxPoint x="494.57" y="80" />
            </Array>
          </mxGeometry>
        </mxCell>
        <mxCell id="RcAz8te14pZP037oVRHO-14" value="" style="endArrow=classic;endFill=1;endSize=12;html=1;rounded=0;" parent="1" edge="1">
          <mxGeometry width="160" relative="1" as="geometry">
            <mxPoint x="340" y="250" as="sourcePoint" />
            <mxPoint x="480" y="250" as="targetPoint" />
            <Array as="points">
              <mxPoint x="430" y="250" />
            </Array>
          </mxGeometry>
        </mxCell>
        <mxCell id="RcAz8te14pZP037oVRHO-15" value="Get Plants" style="text;html=1;align=center;verticalAlign=middle;resizable=0;points=[];autosize=1;strokeColor=none;fillColor=none;" parent="1" vertex="1">
          <mxGeometry x="365" y="230" width="80" height="30" as="geometry" />
        </mxCell>
        <mxCell id="RcAz8te14pZP037oVRHO-16" value="[For all plants]" style="text;html=1;align=center;verticalAlign=middle;resizable=0;points=[];autosize=1;strokeColor=none;fillColor=none;" parent="1" vertex="1">
          <mxGeometry x="330" y="200" width="100" height="30" as="geometry" />
        </mxCell>
        <mxCell id="RcAz8te14pZP037oVRHO-17" value="" style="endArrow=none;endFill=0;endSize=12;html=1;rounded=0;startArrow=open;startFill=0;dashed=1;" parent="1" edge="1">
          <mxGeometry width="160" relative="1" as="geometry">
            <mxPoint x="340" y="290" as="sourcePoint" />
            <mxPoint x="480" y="290" as="targetPoint" />
            <Array as="points">
              <mxPoint x="430" y="290" />
            </Array>
          </mxGeometry>
        </mxCell>
        <mxCell id="RcAz8te14pZP037oVRHO-18" value="display available plants" style="text;html=1;align=center;verticalAlign=middle;resizable=0;points=[];autosize=1;strokeColor=none;fillColor=none;" parent="1" vertex="1">
          <mxGeometry x="330" y="260" width="150" height="30" as="geometry" />
        </mxCell>
        <mxCell id="RcAz8te14pZP037oVRHO-19" value=":Plants Availability" style="html=1;whiteSpace=wrap;" parent="1" vertex="1">
          <mxGeometry x="590" y="138" width="110" height="50" as="geometry" />
        </mxCell>
        <mxCell id="RcAz8te14pZP037oVRHO-20" value="" style="endArrow=open;endFill=1;endSize=12;html=1;rounded=0;entryX=0;entryY=0.5;entryDx=0;entryDy=0;dashed=1;" parent="1" target="RcAz8te14pZP037oVRHO-19" edge="1">
          <mxGeometry width="160" relative="1" as="geometry">
            <mxPoint x="510" y="162.76" as="sourcePoint" />
            <mxPoint x="650" y="162.76" as="targetPoint" />
            <Array as="points" />
          </mxGeometry>
        </mxCell>
        <mxCell id="RcAz8te14pZP037oVRHO-21" value="&amp;lt;&amp;lt;create&amp;gt;&amp;gt;" style="text;html=1;align=center;verticalAlign=middle;resizable=0;points=[];autosize=1;strokeColor=none;fillColor=none;" parent="1" vertex="1">
          <mxGeometry x="510" y="128" width="80" height="30" as="geometry" />
        </mxCell>
        <mxCell id="RcAz8te14pZP037oVRHO-22" value="" style="html=1;points=[[0,0,0,0,5],[0,1,0,0,-5],[1,0,0,0,5],[1,1,0,0,-5]];perimeter=orthogonalPerimeter;outlineConnect=0;targetShapes=umlLifeline;portConstraint=eastwest;newEdgeStyle={&quot;curved&quot;:0,&quot;rounded&quot;:0};" parent="1" vertex="1">
          <mxGeometry x="640" y="220" width="30" height="1130" as="geometry" />
        </mxCell>
        <mxCell id="RcAz8te14pZP037oVRHO-23" style="edgeStyle=orthogonalEdgeStyle;rounded=0;orthogonalLoop=1;jettySize=auto;html=1;endArrow=none;endFill=0;dashed=1;" parent="1" edge="1">
          <mxGeometry relative="1" as="geometry">
            <mxPoint x="644.86" y="188" as="sourcePoint" />
            <mxPoint x="644.86" y="220" as="targetPoint" />
            <Array as="points">
              <mxPoint x="644.86" y="200" />
              <mxPoint x="644.86" y="200" />
            </Array>
          </mxGeometry>
        </mxCell>
        <mxCell id="RcAz8te14pZP037oVRHO-24" value="&amp;nbsp;Verifying" style="text;html=1;align=center;verticalAlign=middle;resizable=0;points=[];autosize=1;strokeColor=none;fillColor=none;" parent="1" vertex="1">
          <mxGeometry x="730" y="260" width="70" height="30" as="geometry" />
        </mxCell>
        <mxCell id="RcAz8te14pZP037oVRHO-25" value="" style="endArrow=classic;endFill=1;endSize=12;html=1;rounded=0;" parent="1" target="RcAz8te14pZP037oVRHO-22" edge="1">
          <mxGeometry width="160" relative="1" as="geometry">
            <mxPoint x="510" y="270" as="sourcePoint" />
            <mxPoint x="630" y="270" as="targetPoint" />
            <Array as="points">
              <mxPoint x="600" y="270" />
            </Array>
          </mxGeometry>
        </mxCell>
        <mxCell id="RcAz8te14pZP037oVRHO-26" value="Get Plants" style="text;html=1;align=center;verticalAlign=middle;resizable=0;points=[];autosize=1;strokeColor=none;fillColor=none;" parent="1" vertex="1">
          <mxGeometry x="520" y="245" width="80" height="30" as="geometry" />
        </mxCell>
        <mxCell id="RcAz8te14pZP037oVRHO-27" value="" style="endArrow=none;endFill=0;endSize=12;html=1;rounded=0;startArrow=open;startFill=0;dashed=1;" parent="1" target="RcAz8te14pZP037oVRHO-22" edge="1">
          <mxGeometry width="160" relative="1" as="geometry">
            <mxPoint x="510" y="300" as="sourcePoint" />
            <mxPoint x="630" y="300" as="targetPoint" />
            <Array as="points">
              <mxPoint x="580" y="300" />
            </Array>
          </mxGeometry>
        </mxCell>
        <mxCell id="RcAz8te14pZP037oVRHO-28" value="display available plants" style="text;html=1;align=center;verticalAlign=middle;resizable=0;points=[];autosize=1;strokeColor=none;fillColor=none;" parent="1" vertex="1">
          <mxGeometry x="500" y="275" width="150" height="30" as="geometry" />
        </mxCell>
        <mxCell id="RcAz8te14pZP037oVRHO-29" value="" style="endArrow=open;endFill=1;endSize=12;html=1;rounded=0;entryX=-0.011;entryY=0.598;entryDx=0;entryDy=0;dashed=1;entryPerimeter=0;" parent="1" target="RcAz8te14pZP037oVRHO-31" edge="1">
          <mxGeometry width="160" relative="1" as="geometry">
            <mxPoint x="670" y="380" as="sourcePoint" />
            <mxPoint x="750" y="380.24" as="targetPoint" />
            <Array as="points" />
          </mxGeometry>
        </mxCell>
        <mxCell id="RcAz8te14pZP037oVRHO-30" style="edgeStyle=orthogonalEdgeStyle;rounded=0;orthogonalLoop=1;jettySize=auto;html=1;endArrow=none;endFill=0;dashed=1;" parent="1" edge="1">
          <mxGeometry relative="1" as="geometry">
            <mxPoint x="812.5" y="400" as="sourcePoint" />
            <mxPoint x="817.5" y="440" as="targetPoint" />
            <Array as="points">
              <mxPoint x="818" y="400" />
              <mxPoint x="818" y="420" />
              <mxPoint x="818" y="420" />
            </Array>
          </mxGeometry>
        </mxCell>
        <mxCell id="RcAz8te14pZP037oVRHO-31" value=":Plant Cart" style="html=1;whiteSpace=wrap;" parent="1" vertex="1">
          <mxGeometry x="760" y="350" width="110" height="50" as="geometry" />
        </mxCell>
        <mxCell id="RcAz8te14pZP037oVRHO-32" value="&amp;lt;&amp;lt;create&amp;gt;&amp;gt;" style="text;html=1;align=center;verticalAlign=middle;resizable=0;points=[];autosize=1;strokeColor=none;fillColor=none;" parent="1" vertex="1">
          <mxGeometry x="670" y="350" width="80" height="30" as="geometry" />
        </mxCell>
        <mxCell id="RcAz8te14pZP037oVRHO-33" value="frame" style="shape=umlFrame;whiteSpace=wrap;html=1;pointerEvents=0;" parent="1" vertex="1">
          <mxGeometry x="235" y="200" width="470" height="120" as="geometry" />
        </mxCell>
        <mxCell id="RcAz8te14pZP037oVRHO-34" value="" style="html=1;points=[[0,0,0,0,5],[0,1,0,0,-5],[1,0,0,0,5],[1,1,0,0,-5]];perimeter=orthogonalPerimeter;outlineConnect=0;targetShapes=umlLifeline;portConstraint=eastwest;newEdgeStyle={&quot;curved&quot;:0,&quot;rounded&quot;:0};" parent="1" vertex="1">
          <mxGeometry x="800" y="440" width="30" height="910" as="geometry" />
        </mxCell>
        <mxCell id="RcAz8te14pZP037oVRHO-35" value="alt" style="shape=umlFrame;whiteSpace=wrap;html=1;pointerEvents=0;" parent="1" vertex="1">
          <mxGeometry x="225" y="410" width="650" height="200" as="geometry" />
        </mxCell>
        <mxCell id="RcAz8te14pZP037oVRHO-36" style="edgeStyle=orthogonalEdgeStyle;rounded=0;orthogonalLoop=1;jettySize=auto;html=1;entryX=1.001;entryY=0.751;entryDx=0;entryDy=0;entryPerimeter=0;" parent="1" source="RcAz8te14pZP037oVRHO-33" target="RcAz8te14pZP037oVRHO-33" edge="1">
          <mxGeometry relative="1" as="geometry">
            <mxPoint x="720" y="290" as="targetPoint" />
            <Array as="points">
              <mxPoint x="740" y="270" />
              <mxPoint x="740" y="290" />
            </Array>
          </mxGeometry>
        </mxCell>
        <mxCell id="RcAz8te14pZP037oVRHO-37" style="edgeStyle=orthogonalEdgeStyle;rounded=0;orthogonalLoop=1;jettySize=auto;html=1;entryX=1.001;entryY=0.474;entryDx=0;entryDy=0;entryPerimeter=0;exitX=0.999;exitY=0.35;exitDx=0;exitDy=0;exitPerimeter=0;" parent="1" source="RcAz8te14pZP037oVRHO-35" target="RcAz8te14pZP037oVRHO-35" edge="1">
          <mxGeometry relative="1" as="geometry">
            <mxPoint x="885" y="470" as="sourcePoint" />
            <mxPoint x="885" y="490" as="targetPoint" />
            <Array as="points">
              <mxPoint x="874" y="470" />
              <mxPoint x="900" y="470" />
              <mxPoint x="900" y="505" />
            </Array>
          </mxGeometry>
        </mxCell>
        <mxCell id="RcAz8te14pZP037oVRHO-38" value="&amp;nbsp;Verifying" style="text;html=1;align=center;verticalAlign=middle;resizable=0;points=[];autosize=1;strokeColor=none;fillColor=none;" parent="1" vertex="1">
          <mxGeometry x="900" y="460" width="70" height="30" as="geometry" />
        </mxCell>
        <mxCell id="RcAz8te14pZP037oVRHO-39" value="[if user wants&lt;div&gt;&amp;nbsp;to purchase&lt;/div&gt;&lt;div&gt;&amp;nbsp;plants]&lt;/div&gt;" style="text;html=1;align=center;verticalAlign=middle;resizable=0;points=[];autosize=1;strokeColor=none;fillColor=none;" parent="1" vertex="1">
          <mxGeometry x="220" y="445" width="90" height="60" as="geometry" />
        </mxCell>
        <mxCell id="RcAz8te14pZP037oVRHO-40" value="" style="endArrow=open;endFill=1;endSize=12;html=1;rounded=0;dashed=1;" parent="1" edge="1">
          <mxGeometry width="160" relative="1" as="geometry">
            <mxPoint x="480" y="539.8" as="sourcePoint" />
            <mxPoint x="340" y="539.8" as="targetPoint" />
            <Array as="points">
              <mxPoint x="410" y="539.8" />
            </Array>
          </mxGeometry>
        </mxCell>
        <mxCell id="RcAz8te14pZP037oVRHO-41" value="confims selected plant" style="text;html=1;align=center;verticalAlign=middle;resizable=0;points=[];autosize=1;strokeColor=none;fillColor=none;" parent="1" vertex="1">
          <mxGeometry x="340" y="505" width="140" height="30" as="geometry" />
        </mxCell>
        <mxCell id="RcAz8te14pZP037oVRHO-42" value="" style="endArrow=classic;endFill=1;endSize=12;html=1;rounded=0;" parent="1" edge="1">
          <mxGeometry width="160" relative="1" as="geometry">
            <mxPoint x="340" y="445" as="sourcePoint" />
            <mxPoint x="480" y="445" as="targetPoint" />
            <Array as="points">
              <mxPoint x="430" y="445" />
            </Array>
          </mxGeometry>
        </mxCell>
        <mxCell id="RcAz8te14pZP037oVRHO-43" value="Select preferred plants" style="text;html=1;align=center;verticalAlign=middle;resizable=0;points=[];autosize=1;strokeColor=none;fillColor=none;" parent="1" vertex="1">
          <mxGeometry x="335" y="415" width="140" height="30" as="geometry" />
        </mxCell>
        <mxCell id="RcAz8te14pZP037oVRHO-44" value="" style="endArrow=none;dashed=1;html=1;rounded=0;entryX=1.004;entryY=0.603;entryDx=0;entryDy=0;entryPerimeter=0;targetPerimeterSpacing=-4;endSize=10;sourcePerimeterSpacing=-5;startSize=10;exitX=0.001;exitY=0.599;exitDx=0;exitDy=0;exitPerimeter=0;" parent="1" edge="1">
          <mxGeometry width="50" height="50" relative="1" as="geometry">
            <mxPoint x="224.01999999999998" y="549.9999999999999" as="sourcePoint" />
            <mxPoint x="875.9699999999999" y="550.8" as="targetPoint" />
          </mxGeometry>
        </mxCell>
        <mxCell id="RcAz8te14pZP037oVRHO-45" value="" style="endArrow=classic;endFill=1;endSize=12;html=1;rounded=0;" parent="1" edge="1">
          <mxGeometry width="160" relative="1" as="geometry">
            <mxPoint x="510" y="460" as="sourcePoint" />
            <mxPoint x="640" y="460" as="targetPoint" />
            <Array as="points">
              <mxPoint x="600" y="460" />
            </Array>
          </mxGeometry>
        </mxCell>
        <mxCell id="RcAz8te14pZP037oVRHO-46" value="Select preferred plants" style="text;html=1;align=center;verticalAlign=middle;resizable=0;points=[];autosize=1;strokeColor=none;fillColor=none;" parent="1" vertex="1">
          <mxGeometry x="505" y="430" width="140" height="30" as="geometry" />
        </mxCell>
        <mxCell id="RcAz8te14pZP037oVRHO-47" value="" style="endArrow=open;endFill=1;endSize=12;html=1;rounded=0;dashed=1;entryX=0.039;entryY=0.999;entryDx=0;entryDy=0;entryPerimeter=0;" parent="1" target="RcAz8te14pZP037oVRHO-48" edge="1">
          <mxGeometry width="160" relative="1" as="geometry">
            <mxPoint x="635" y="520.24" as="sourcePoint" />
            <mxPoint x="505" y="520" as="targetPoint" />
            <Array as="points">
              <mxPoint x="575" y="520" />
            </Array>
          </mxGeometry>
        </mxCell>
        <mxCell id="RcAz8te14pZP037oVRHO-48" value="confims selected plant" style="text;html=1;align=center;verticalAlign=middle;resizable=0;points=[];autosize=1;strokeColor=none;fillColor=none;" parent="1" vertex="1">
          <mxGeometry x="505" y="490" width="140" height="30" as="geometry" />
        </mxCell>
        <mxCell id="RcAz8te14pZP037oVRHO-49" value="[else]" style="text;html=1;align=center;verticalAlign=middle;resizable=0;points=[];autosize=1;strokeColor=none;fillColor=none;" parent="1" vertex="1">
          <mxGeometry x="225" y="550" width="50" height="30" as="geometry" />
        </mxCell>
        <mxCell id="RcAz8te14pZP037oVRHO-50" value="" style="endArrow=open;endFill=1;endSize=12;html=1;rounded=0;dashed=1;" parent="1" edge="1">
          <mxGeometry width="160" relative="1" as="geometry">
            <mxPoint x="480" y="600" as="sourcePoint" />
            <mxPoint x="340" y="600" as="targetPoint" />
            <Array as="points">
              <mxPoint x="410" y="600" />
            </Array>
          </mxGeometry>
        </mxCell>
        <mxCell id="RcAz8te14pZP037oVRHO-51" value="" style="endArrow=open;endFill=1;endSize=12;html=1;rounded=0;dashed=1;" parent="1" edge="1">
          <mxGeometry width="160" relative="1" as="geometry">
            <mxPoint x="640" y="580.24" as="sourcePoint" />
            <mxPoint x="510" y="580" as="targetPoint" />
            <Array as="points">
              <mxPoint x="580" y="580" />
            </Array>
          </mxGeometry>
        </mxCell>
        <mxCell id="RcAz8te14pZP037oVRHO-52" value="Displayed Plants" style="text;html=1;align=center;verticalAlign=middle;resizable=0;points=[];autosize=1;strokeColor=none;fillColor=none;" parent="1" vertex="1">
          <mxGeometry x="520" y="555" width="110" height="30" as="geometry" />
        </mxCell>
        <mxCell id="RcAz8te14pZP037oVRHO-53" value="Displayed Plants" style="text;html=1;align=center;verticalAlign=middle;resizable=0;points=[];autosize=1;strokeColor=none;fillColor=none;" parent="1" vertex="1">
          <mxGeometry x="355" y="570" width="110" height="30" as="geometry" />
        </mxCell>
        <mxCell id="RcAz8te14pZP037oVRHO-54" value="" style="endArrow=classic;endFill=1;endSize=12;html=1;rounded=0;" parent="1" edge="1">
          <mxGeometry width="160" relative="1" as="geometry">
            <mxPoint x="670" y="474.6" as="sourcePoint" />
            <mxPoint x="800" y="474.6" as="targetPoint" />
            <Array as="points">
              <mxPoint x="760" y="474.6" />
            </Array>
          </mxGeometry>
        </mxCell>
        <mxCell id="RcAz8te14pZP037oVRHO-55" value="" style="endArrow=open;endFill=1;endSize=12;html=1;rounded=0;dashed=1;" parent="1" edge="1">
          <mxGeometry width="160" relative="1" as="geometry">
            <mxPoint x="800" y="505" as="sourcePoint" />
            <mxPoint x="670" y="504.76" as="targetPoint" />
            <Array as="points">
              <mxPoint x="740" y="504.76" />
            </Array>
          </mxGeometry>
        </mxCell>
        <mxCell id="RcAz8te14pZP037oVRHO-56" value="Select preferred plants" style="text;html=1;align=center;verticalAlign=middle;resizable=0;points=[];autosize=1;strokeColor=none;fillColor=none;" parent="1" vertex="1">
          <mxGeometry x="660" y="445" width="140" height="30" as="geometry" />
        </mxCell>
        <mxCell id="RcAz8te14pZP037oVRHO-57" value="confims selected plant" style="text;html=1;align=center;verticalAlign=middle;resizable=0;points=[];autosize=1;strokeColor=none;fillColor=none;" parent="1" vertex="1">
          <mxGeometry x="660" y="475" width="140" height="30" as="geometry" />
        </mxCell>
        <mxCell id="RcAz8te14pZP037oVRHO-58" value="" style="endArrow=open;endFill=1;endSize=12;html=1;rounded=0;" parent="1" edge="1">
          <mxGeometry width="160" relative="1" as="geometry">
            <mxPoint x="170" y="649.43" as="sourcePoint" />
            <mxPoint x="310" y="649.43" as="targetPoint" />
            <Array as="points">
              <mxPoint x="260" y="649.43" />
            </Array>
          </mxGeometry>
        </mxCell>
        <mxCell id="RcAz8te14pZP037oVRHO-59" value="Select Preferable Plants" style="text;html=1;align=center;verticalAlign=middle;resizable=0;points=[];autosize=1;strokeColor=none;fillColor=none;" parent="1" vertex="1">
          <mxGeometry x="160" y="615" width="150" height="30" as="geometry" />
        </mxCell>
        <mxCell id="RcAz8te14pZP037oVRHO-60" value="" style="endArrow=classic;endFill=1;endSize=12;html=1;rounded=0;" parent="1" edge="1">
          <mxGeometry width="160" relative="1" as="geometry">
            <mxPoint x="340" y="665" as="sourcePoint" />
            <mxPoint x="480" y="665" as="targetPoint" />
            <Array as="points">
              <mxPoint x="430" y="665" />
            </Array>
          </mxGeometry>
        </mxCell>
        <mxCell id="RcAz8te14pZP037oVRHO-61" value="Initiate checkout process" style="text;html=1;align=center;verticalAlign=middle;resizable=0;points=[];autosize=1;strokeColor=none;fillColor=none;" parent="1" vertex="1">
          <mxGeometry x="330" y="630" width="160" height="30" as="geometry" />
        </mxCell>
        <mxCell id="RcAz8te14pZP037oVRHO-62" value="" style="endArrow=classic;endFill=1;endSize=12;html=1;rounded=0;" parent="1" edge="1">
          <mxGeometry width="160" relative="1" as="geometry">
            <mxPoint x="510" y="680" as="sourcePoint" />
            <mxPoint x="640" y="680" as="targetPoint" />
            <Array as="points">
              <mxPoint x="600" y="680" />
            </Array>
          </mxGeometry>
        </mxCell>
        <mxCell id="RcAz8te14pZP037oVRHO-63" value="Initiate checkout&lt;div&gt;&amp;nbsp;process&lt;/div&gt;" style="text;html=1;align=center;verticalAlign=middle;resizable=0;points=[];autosize=1;strokeColor=none;fillColor=none;" parent="1" vertex="1">
          <mxGeometry x="510" y="645" width="110" height="40" as="geometry" />
        </mxCell>
        <mxCell id="RcAz8te14pZP037oVRHO-64" value="" style="endArrow=classic;endFill=1;endSize=12;html=1;rounded=0;" parent="1" edge="1">
          <mxGeometry width="160" relative="1" as="geometry">
            <mxPoint x="670" y="690" as="sourcePoint" />
            <mxPoint x="800" y="690" as="targetPoint" />
            <Array as="points">
              <mxPoint x="760" y="690" />
            </Array>
          </mxGeometry>
        </mxCell>
        <mxCell id="RcAz8te14pZP037oVRHO-65" value="Initiate checkout&lt;div&gt;&amp;nbsp;process&lt;/div&gt;" style="text;html=1;align=center;verticalAlign=middle;resizable=0;points=[];autosize=1;strokeColor=none;fillColor=none;" parent="1" vertex="1">
          <mxGeometry x="675" y="650" width="110" height="40" as="geometry" />
        </mxCell>
        <mxCell id="RcAz8te14pZP037oVRHO-66" value="" style="endArrow=open;endFill=1;endSize=12;html=1;rounded=0;entryX=-0.011;entryY=0.598;entryDx=0;entryDy=0;dashed=1;entryPerimeter=0;" parent="1" edge="1">
          <mxGeometry width="160" relative="1" as="geometry">
            <mxPoint x="830" y="640" as="sourcePoint" />
            <mxPoint x="919" y="640" as="targetPoint" />
            <Array as="points" />
          </mxGeometry>
        </mxCell>
        <mxCell id="RcAz8te14pZP037oVRHO-67" value="" style="html=1;points=[[0,0,0,0,5],[0,1,0,0,-5],[1,0,0,0,5],[1,1,0,0,-5]];perimeter=orthogonalPerimeter;outlineConnect=0;targetShapes=umlLifeline;portConstraint=eastwest;newEdgeStyle={&quot;curved&quot;:0,&quot;rounded&quot;:0};" parent="1" vertex="1">
          <mxGeometry x="960" y="700" width="30" height="640" as="geometry" />
        </mxCell>
        <mxCell id="RcAz8te14pZP037oVRHO-68" style="edgeStyle=orthogonalEdgeStyle;rounded=0;orthogonalLoop=1;jettySize=auto;html=1;endArrow=none;endFill=0;dashed=1;" parent="1" source="RcAz8te14pZP037oVRHO-69" target="RcAz8te14pZP037oVRHO-67" edge="1">
          <mxGeometry relative="1" as="geometry">
            <Array as="points">
              <mxPoint x="975" y="840" />
              <mxPoint x="975" y="840" />
            </Array>
          </mxGeometry>
        </mxCell>
        <mxCell id="RcAz8te14pZP037oVRHO-69" value=":Plant Purchase Transaction" style="html=1;whiteSpace=wrap;" parent="1" vertex="1">
          <mxGeometry x="920" y="620" width="110" height="50" as="geometry" />
        </mxCell>
        <mxCell id="RcAz8te14pZP037oVRHO-70" value="&amp;lt;&amp;lt;create&amp;gt;&amp;gt;" style="text;html=1;align=center;verticalAlign=middle;resizable=0;points=[];autosize=1;strokeColor=none;fillColor=none;" parent="1" vertex="1">
          <mxGeometry x="830" y="610" width="80" height="30" as="geometry" />
        </mxCell>
        <mxCell id="RcAz8te14pZP037oVRHO-71" value="" style="endArrow=classic;endFill=1;endSize=12;html=1;rounded=0;" parent="1" edge="1">
          <mxGeometry width="160" relative="1" as="geometry">
            <mxPoint x="830" y="710" as="sourcePoint" />
            <mxPoint x="960" y="710" as="targetPoint" />
            <Array as="points">
              <mxPoint x="920" y="710" />
            </Array>
          </mxGeometry>
        </mxCell>
        <mxCell id="RcAz8te14pZP037oVRHO-72" value="Initiate checkout&lt;div&gt;&amp;nbsp;process&lt;/div&gt;" style="text;html=1;align=center;verticalAlign=middle;resizable=0;points=[];autosize=1;strokeColor=none;fillColor=none;" parent="1" vertex="1">
          <mxGeometry x="840" y="670" width="110" height="40" as="geometry" />
        </mxCell>
        <mxCell id="RcAz8te14pZP037oVRHO-73" value="" style="endArrow=open;endFill=1;endSize=12;html=1;rounded=0;dashed=1;" parent="1" edge="1">
          <mxGeometry width="160" relative="1" as="geometry">
            <mxPoint x="960" y="750.24" as="sourcePoint" />
            <mxPoint x="830" y="750" as="targetPoint" />
            <Array as="points">
              <mxPoint x="900" y="750" />
            </Array>
          </mxGeometry>
        </mxCell>
        <mxCell id="RcAz8te14pZP037oVRHO-74" value="Display Checkout&lt;div&gt;&amp;nbsp;Form&lt;/div&gt;" style="text;html=1;align=center;verticalAlign=middle;resizable=0;points=[];autosize=1;strokeColor=none;fillColor=none;" parent="1" vertex="1">
          <mxGeometry x="835" y="710" width="120" height="40" as="geometry" />
        </mxCell>
        <mxCell id="RcAz8te14pZP037oVRHO-75" value="" style="endArrow=open;endFill=1;endSize=12;html=1;rounded=0;dashed=1;" parent="1" edge="1">
          <mxGeometry width="160" relative="1" as="geometry">
            <mxPoint x="800" y="770.24" as="sourcePoint" />
            <mxPoint x="670" y="770" as="targetPoint" />
            <Array as="points">
              <mxPoint x="740" y="770" />
            </Array>
          </mxGeometry>
        </mxCell>
        <mxCell id="RcAz8te14pZP037oVRHO-76" value="Display Checkout&lt;div&gt;&amp;nbsp;Form&lt;/div&gt;" style="text;html=1;align=center;verticalAlign=middle;resizable=0;points=[];autosize=1;strokeColor=none;fillColor=none;" parent="1" vertex="1">
          <mxGeometry x="675" y="730" width="120" height="40" as="geometry" />
        </mxCell>
        <mxCell id="RcAz8te14pZP037oVRHO-77" value="" style="endArrow=open;endFill=1;endSize=12;html=1;rounded=0;dashed=1;" parent="1" edge="1">
          <mxGeometry width="160" relative="1" as="geometry">
            <mxPoint x="640" y="785.04" as="sourcePoint" />
            <mxPoint x="510" y="784.8" as="targetPoint" />
            <Array as="points">
              <mxPoint x="580" y="784.8" />
            </Array>
          </mxGeometry>
        </mxCell>
        <mxCell id="RcAz8te14pZP037oVRHO-78" value="Display Checkout&lt;div&gt;&amp;nbsp;Form&lt;/div&gt;" style="text;html=1;align=center;verticalAlign=middle;resizable=0;points=[];autosize=1;strokeColor=none;fillColor=none;" parent="1" vertex="1">
          <mxGeometry x="520" y="740" width="120" height="40" as="geometry" />
        </mxCell>
        <mxCell id="RcAz8te14pZP037oVRHO-79" value="" style="endArrow=open;endFill=1;endSize=12;html=1;rounded=0;dashed=1;" parent="1" target="RcAz8te14pZP037oVRHO-7" edge="1">
          <mxGeometry width="160" relative="1" as="geometry">
            <mxPoint x="480" y="810.24" as="sourcePoint" />
            <mxPoint x="350" y="810" as="targetPoint" />
            <Array as="points">
              <mxPoint x="420" y="810" />
            </Array>
          </mxGeometry>
        </mxCell>
        <mxCell id="RcAz8te14pZP037oVRHO-80" value="Display Checkout&lt;div&gt;&amp;nbsp;Form&lt;/div&gt;" style="text;html=1;align=center;verticalAlign=middle;resizable=0;points=[];autosize=1;strokeColor=none;fillColor=none;" parent="1" vertex="1">
          <mxGeometry x="355" y="770" width="120" height="40" as="geometry" />
        </mxCell>
        <mxCell id="RcAz8te14pZP037oVRHO-81" value="" style="endArrow=open;endFill=1;endSize=12;html=1;rounded=0;" parent="1" edge="1">
          <mxGeometry width="160" relative="1" as="geometry">
            <mxPoint x="170" y="850" as="sourcePoint" />
            <mxPoint x="310" y="850" as="targetPoint" />
            <Array as="points">
              <mxPoint x="260" y="850" />
            </Array>
          </mxGeometry>
        </mxCell>
        <mxCell id="RcAz8te14pZP037oVRHO-82" value="Fill out the checkout&amp;nbsp;&lt;div&gt;form&lt;/div&gt;" style="text;html=1;align=center;verticalAlign=middle;resizable=0;points=[];autosize=1;strokeColor=none;fillColor=none;" parent="1" vertex="1">
          <mxGeometry x="170" y="810" width="130" height="40" as="geometry" />
        </mxCell>
        <mxCell id="RcAz8te14pZP037oVRHO-83" value="" style="endArrow=classic;endFill=1;endSize=12;html=1;rounded=0;" parent="1" edge="1">
          <mxGeometry width="160" relative="1" as="geometry">
            <mxPoint x="340" y="870" as="sourcePoint" />
            <mxPoint x="480" y="870" as="targetPoint" />
            <Array as="points">
              <mxPoint x="430" y="870" />
            </Array>
          </mxGeometry>
        </mxCell>
        <mxCell id="RcAz8te14pZP037oVRHO-84" value="Filled checkout form" style="text;html=1;align=center;verticalAlign=middle;resizable=0;points=[];autosize=1;strokeColor=none;fillColor=none;" parent="1" vertex="1">
          <mxGeometry x="340" y="840" width="130" height="30" as="geometry" />
        </mxCell>
        <mxCell id="RcAz8te14pZP037oVRHO-85" value="" style="endArrow=classic;endFill=1;endSize=12;html=1;rounded=0;" parent="1" edge="1">
          <mxGeometry width="160" relative="1" as="geometry">
            <mxPoint x="510" y="894.58" as="sourcePoint" />
            <mxPoint x="640" y="894.58" as="targetPoint" />
            <Array as="points">
              <mxPoint x="600" y="894.58" />
            </Array>
          </mxGeometry>
        </mxCell>
        <mxCell id="RcAz8te14pZP037oVRHO-86" value="Filled checkout form" style="text;html=1;align=center;verticalAlign=middle;resizable=0;points=[];autosize=1;strokeColor=none;fillColor=none;" parent="1" vertex="1">
          <mxGeometry x="505" y="870" width="130" height="30" as="geometry" />
        </mxCell>
        <mxCell id="RcAz8te14pZP037oVRHO-87" value="" style="endArrow=classic;endFill=1;endSize=12;html=1;rounded=0;" parent="1" edge="1">
          <mxGeometry width="160" relative="1" as="geometry">
            <mxPoint x="670" y="920" as="sourcePoint" />
            <mxPoint x="800" y="920" as="targetPoint" />
            <Array as="points">
              <mxPoint x="760" y="920" />
            </Array>
          </mxGeometry>
        </mxCell>
        <mxCell id="RcAz8te14pZP037oVRHO-88" value="Filled checkout form" style="text;html=1;align=center;verticalAlign=middle;resizable=0;points=[];autosize=1;strokeColor=none;fillColor=none;" parent="1" vertex="1">
          <mxGeometry x="670" y="890" width="130" height="30" as="geometry" />
        </mxCell>
        <mxCell id="RcAz8te14pZP037oVRHO-89" value="" style="endArrow=classic;endFill=1;endSize=12;html=1;rounded=0;" parent="1" edge="1">
          <mxGeometry width="160" relative="1" as="geometry">
            <mxPoint x="830" y="940" as="sourcePoint" />
            <mxPoint x="960" y="940" as="targetPoint" />
            <Array as="points">
              <mxPoint x="920" y="940" />
            </Array>
          </mxGeometry>
        </mxCell>
        <mxCell id="RcAz8te14pZP037oVRHO-90" value="Filled checkout form" style="text;html=1;align=center;verticalAlign=middle;resizable=0;points=[];autosize=1;strokeColor=none;fillColor=none;" parent="1" vertex="1">
          <mxGeometry x="825" y="910" width="130" height="30" as="geometry" />
        </mxCell>
        <mxCell id="RcAz8te14pZP037oVRHO-91" value="" style="endArrow=open;endFill=1;endSize=12;html=1;rounded=0;dashed=1;" parent="1" edge="1">
          <mxGeometry width="160" relative="1" as="geometry">
            <mxPoint x="960" y="1000.24" as="sourcePoint" />
            <mxPoint x="830" y="1000" as="targetPoint" />
            <Array as="points">
              <mxPoint x="900" y="1000" />
            </Array>
          </mxGeometry>
        </mxCell>
        <mxCell id="RcAz8te14pZP037oVRHO-92" value="Purchase confirmed&amp;nbsp;&lt;div&gt;receipt&lt;/div&gt;" style="text;html=1;align=center;verticalAlign=middle;resizable=0;points=[];autosize=1;strokeColor=none;fillColor=none;" parent="1" vertex="1">
          <mxGeometry x="835" y="960" width="130" height="40" as="geometry" />
        </mxCell>
        <mxCell id="RcAz8te14pZP037oVRHO-93" value="" style="endArrow=open;endFill=1;endSize=12;html=1;rounded=0;dashed=1;" parent="1" edge="1">
          <mxGeometry width="160" relative="1" as="geometry">
            <mxPoint x="800" y="1020.1" as="sourcePoint" />
            <mxPoint x="670" y="1019.86" as="targetPoint" />
            <Array as="points">
              <mxPoint x="740" y="1019.86" />
            </Array>
          </mxGeometry>
        </mxCell>
        <mxCell id="RcAz8te14pZP037oVRHO-94" value="Purchase confirmed&amp;nbsp;&lt;div&gt;receipt&lt;/div&gt;" style="text;html=1;align=center;verticalAlign=middle;resizable=0;points=[];autosize=1;strokeColor=none;fillColor=none;" parent="1" vertex="1">
          <mxGeometry x="670" y="980" width="130" height="40" as="geometry" />
        </mxCell>
        <mxCell id="RcAz8te14pZP037oVRHO-95" value="" style="endArrow=open;endFill=1;endSize=12;html=1;rounded=0;dashed=1;" parent="1" edge="1">
          <mxGeometry width="160" relative="1" as="geometry">
            <mxPoint x="640" y="1040.24" as="sourcePoint" />
            <mxPoint x="510" y="1040.0000000000002" as="targetPoint" />
            <Array as="points">
              <mxPoint x="580" y="1040.0000000000002" />
            </Array>
          </mxGeometry>
        </mxCell>
        <mxCell id="RcAz8te14pZP037oVRHO-96" value="Purchase confirmed&amp;nbsp;&lt;div&gt;receipt&lt;/div&gt;" style="text;html=1;align=center;verticalAlign=middle;resizable=0;points=[];autosize=1;strokeColor=none;fillColor=none;" parent="1" vertex="1">
          <mxGeometry x="515" y="1000" width="130" height="40" as="geometry" />
        </mxCell>
        <mxCell id="RcAz8te14pZP037oVRHO-97" value="" style="endArrow=open;endFill=1;endSize=12;html=1;rounded=0;dashed=1;" parent="1" target="RcAz8te14pZP037oVRHO-7" edge="1">
          <mxGeometry width="160" relative="1" as="geometry">
            <mxPoint x="480" y="1050.24" as="sourcePoint" />
            <mxPoint x="350" y="1050.0000000000002" as="targetPoint" />
            <Array as="points">
              <mxPoint x="420" y="1050.0000000000002" />
            </Array>
          </mxGeometry>
        </mxCell>
        <mxCell id="RcAz8te14pZP037oVRHO-98" value="Purchase confirmed&amp;nbsp;&lt;div&gt;receipt&lt;/div&gt;" style="text;html=1;align=center;verticalAlign=middle;resizable=0;points=[];autosize=1;strokeColor=none;fillColor=none;" parent="1" vertex="1">
          <mxGeometry x="350" y="1010" width="130" height="40" as="geometry" />
        </mxCell>
        <mxCell id="RcAz8te14pZP037oVRHO-99" value="" style="endArrow=open;endFill=1;endSize=12;html=1;rounded=0;" parent="1" edge="1">
          <mxGeometry width="160" relative="1" as="geometry">
            <mxPoint x="170" y="1090" as="sourcePoint" />
            <mxPoint x="310" y="1090" as="targetPoint" />
            <Array as="points">
              <mxPoint x="260" y="1090" />
            </Array>
          </mxGeometry>
        </mxCell>
        <mxCell id="RcAz8te14pZP037oVRHO-100" value="Request Plant Purchase&lt;div&gt;History&lt;/div&gt;" style="text;html=1;align=center;verticalAlign=middle;resizable=0;points=[];autosize=1;strokeColor=none;fillColor=none;" parent="1" vertex="1">
          <mxGeometry x="160" y="1053" width="150" height="40" as="geometry" />
        </mxCell>
        <mxCell id="RcAz8te14pZP037oVRHO-101" value="" style="endArrow=classic;endFill=1;endSize=12;html=1;rounded=0;" parent="1" edge="1">
          <mxGeometry width="160" relative="1" as="geometry">
            <mxPoint x="340" y="1120" as="sourcePoint" />
            <mxPoint x="480" y="1120" as="targetPoint" />
            <Array as="points">
              <mxPoint x="430" y="1120" />
            </Array>
          </mxGeometry>
        </mxCell>
        <mxCell id="RcAz8te14pZP037oVRHO-102" value="Request Plant Purchase&lt;div&gt;History&lt;/div&gt;" style="text;html=1;align=center;verticalAlign=middle;resizable=0;points=[];autosize=1;strokeColor=none;fillColor=none;" parent="1" vertex="1">
          <mxGeometry x="335" y="1080" width="150" height="40" as="geometry" />
        </mxCell>
        <mxCell id="RcAz8te14pZP037oVRHO-103" value="" style="endArrow=classic;endFill=1;endSize=12;html=1;rounded=0;" parent="1" edge="1">
          <mxGeometry width="160" relative="1" as="geometry">
            <mxPoint x="510" y="1140" as="sourcePoint" />
            <mxPoint x="640" y="1140" as="targetPoint" />
            <Array as="points">
              <mxPoint x="600" y="1140" />
            </Array>
          </mxGeometry>
        </mxCell>
        <mxCell id="RcAz8te14pZP037oVRHO-104" value="Request Plant&amp;nbsp;&lt;div&gt;Purchase History&lt;/div&gt;" style="text;html=1;align=center;verticalAlign=middle;resizable=0;points=[];autosize=1;strokeColor=none;fillColor=none;" parent="1" vertex="1">
          <mxGeometry x="520" y="1093" width="110" height="40" as="geometry" />
        </mxCell>
        <mxCell id="RcAz8te14pZP037oVRHO-105" value="" style="endArrow=classic;endFill=1;endSize=12;html=1;rounded=0;" parent="1" edge="1">
          <mxGeometry width="160" relative="1" as="geometry">
            <mxPoint x="670" y="1150" as="sourcePoint" />
            <mxPoint x="800" y="1150" as="targetPoint" />
            <Array as="points">
              <mxPoint x="760" y="1150" />
            </Array>
          </mxGeometry>
        </mxCell>
        <mxCell id="RcAz8te14pZP037oVRHO-106" value="Request Plant&amp;nbsp;&lt;div&gt;Purchase History&lt;/div&gt;" style="text;html=1;align=center;verticalAlign=middle;resizable=0;points=[];autosize=1;strokeColor=none;fillColor=none;" parent="1" vertex="1">
          <mxGeometry x="680" y="1110" width="110" height="40" as="geometry" />
        </mxCell>
        <mxCell id="RcAz8te14pZP037oVRHO-107" value="" style="endArrow=classic;endFill=1;endSize=12;html=1;rounded=0;" parent="1" edge="1">
          <mxGeometry width="160" relative="1" as="geometry">
            <mxPoint x="830" y="1170" as="sourcePoint" />
            <mxPoint x="960" y="1170" as="targetPoint" />
            <Array as="points">
              <mxPoint x="920" y="1170" />
            </Array>
          </mxGeometry>
        </mxCell>
        <mxCell id="RcAz8te14pZP037oVRHO-108" value="Request Plant&amp;nbsp;&lt;div&gt;Purchase History&lt;/div&gt;" style="text;html=1;align=center;verticalAlign=middle;resizable=0;points=[];autosize=1;strokeColor=none;fillColor=none;" parent="1" vertex="1">
          <mxGeometry x="835" y="1130" width="110" height="40" as="geometry" />
        </mxCell>
        <mxCell id="RcAz8te14pZP037oVRHO-109" value="" style="endArrow=open;endFill=1;endSize=12;html=1;rounded=0;dashed=1;entryX=-0.002;entryY=0.382;entryDx=0;entryDy=0;entryPerimeter=0;" parent="1" target="RcAz8te14pZP037oVRHO-111" edge="1">
          <mxGeometry width="160" relative="1" as="geometry">
            <mxPoint x="990" y="1040" as="sourcePoint" />
            <mxPoint x="1100" y="1040" as="targetPoint" />
            <Array as="points" />
          </mxGeometry>
        </mxCell>
        <mxCell id="RcAz8te14pZP037oVRHO-110" style="edgeStyle=orthogonalEdgeStyle;rounded=0;orthogonalLoop=1;jettySize=auto;html=1;endArrow=none;endFill=0;dashed=1;" parent="1" source="RcAz8te14pZP037oVRHO-111" target="RcAz8te14pZP037oVRHO-113" edge="1">
          <mxGeometry relative="1" as="geometry">
            <Array as="points">
              <mxPoint x="1135" y="1250" />
              <mxPoint x="1135" y="1250" />
            </Array>
          </mxGeometry>
        </mxCell>
        <mxCell id="RcAz8te14pZP037oVRHO-111" value=":Purchase Plants" style="html=1;whiteSpace=wrap;" parent="1" vertex="1">
          <mxGeometry x="1080" y="1020" width="110" height="50" as="geometry" />
        </mxCell>
        <mxCell id="RcAz8te14pZP037oVRHO-112" value="&amp;lt;&amp;lt;create&amp;gt;&amp;gt;" style="text;html=1;align=center;verticalAlign=middle;resizable=0;points=[];autosize=1;strokeColor=none;fillColor=none;" parent="1" vertex="1">
          <mxGeometry x="1000" y="1010" width="80" height="30" as="geometry" />
        </mxCell>
        <mxCell id="RcAz8te14pZP037oVRHO-113" value="" style="html=1;points=[[0,0,0,0,5],[0,1,0,0,-5],[1,0,0,0,5],[1,1,0,0,-5]];perimeter=orthogonalPerimeter;outlineConnect=0;targetShapes=umlLifeline;portConstraint=eastwest;newEdgeStyle={&quot;curved&quot;:0,&quot;rounded&quot;:0};" parent="1" vertex="1">
          <mxGeometry x="1120" y="1120" width="30" height="240" as="geometry" />
        </mxCell>
        <mxCell id="RcAz8te14pZP037oVRHO-114" value="" style="endArrow=classic;endFill=1;endSize=12;html=1;rounded=0;" parent="1" edge="1">
          <mxGeometry width="160" relative="1" as="geometry">
            <mxPoint x="990" y="1190" as="sourcePoint" />
            <mxPoint x="1120" y="1190" as="targetPoint" />
            <Array as="points">
              <mxPoint x="1080" y="1190" />
            </Array>
          </mxGeometry>
        </mxCell>
        <mxCell id="RcAz8te14pZP037oVRHO-115" value="Request Plant&amp;nbsp;&lt;div&gt;Purchase History&lt;/div&gt;" style="text;html=1;align=center;verticalAlign=middle;resizable=0;points=[];autosize=1;strokeColor=none;fillColor=none;" parent="1" vertex="1">
          <mxGeometry x="1000" y="1150" width="110" height="40" as="geometry" />
        </mxCell>
        <mxCell id="RcAz8te14pZP037oVRHO-116" value="" style="endArrow=open;endFill=1;endSize=12;html=1;rounded=0;dashed=1;" parent="1" edge="1">
          <mxGeometry width="160" relative="1" as="geometry">
            <mxPoint x="1120" y="1239.9499999999998" as="sourcePoint" />
            <mxPoint x="990" y="1239.71" as="targetPoint" />
            <Array as="points">
              <mxPoint x="1060" y="1239.71" />
            </Array>
          </mxGeometry>
        </mxCell>
        <mxCell id="RcAz8te14pZP037oVRHO-117" value="Display Pant Purchase&amp;nbsp;&lt;div&gt;History&lt;/div&gt;" style="text;html=1;align=center;verticalAlign=middle;resizable=0;points=[];autosize=1;strokeColor=none;fillColor=none;" parent="1" vertex="1">
          <mxGeometry x="980" y="1200" width="150" height="40" as="geometry" />
        </mxCell>
        <mxCell id="RcAz8te14pZP037oVRHO-118" value="" style="endArrow=open;endFill=1;endSize=12;html=1;rounded=0;dashed=1;" parent="1" edge="1">
          <mxGeometry width="160" relative="1" as="geometry">
            <mxPoint x="960" y="1260.2399999999998" as="sourcePoint" />
            <mxPoint x="830" y="1260" as="targetPoint" />
            <Array as="points">
              <mxPoint x="900" y="1260" />
            </Array>
          </mxGeometry>
        </mxCell>
        <mxCell id="RcAz8te14pZP037oVRHO-119" value="Display Pant Purchase&amp;nbsp;&lt;div&gt;History&lt;/div&gt;" style="text;html=1;align=center;verticalAlign=middle;resizable=0;points=[];autosize=1;strokeColor=none;fillColor=none;" parent="1" vertex="1">
          <mxGeometry x="820" y="1220" width="150" height="40" as="geometry" />
        </mxCell>
        <mxCell id="RcAz8te14pZP037oVRHO-120" value="" style="endArrow=open;endFill=1;endSize=12;html=1;rounded=0;dashed=1;" parent="1" edge="1">
          <mxGeometry width="160" relative="1" as="geometry">
            <mxPoint x="800" y="1280.2399999999998" as="sourcePoint" />
            <mxPoint x="670" y="1280" as="targetPoint" />
            <Array as="points">
              <mxPoint x="740" y="1280" />
            </Array>
          </mxGeometry>
        </mxCell>
        <mxCell id="RcAz8te14pZP037oVRHO-121" value="Display Pant Purchase&amp;nbsp;&lt;div&gt;History&lt;/div&gt;" style="text;html=1;align=center;verticalAlign=middle;resizable=0;points=[];autosize=1;strokeColor=none;fillColor=none;" parent="1" vertex="1">
          <mxGeometry x="660" y="1240" width="150" height="40" as="geometry" />
        </mxCell>
        <mxCell id="RcAz8te14pZP037oVRHO-122" value="" style="endArrow=open;endFill=1;endSize=12;html=1;rounded=0;dashed=1;" parent="1" edge="1">
          <mxGeometry width="160" relative="1" as="geometry">
            <mxPoint x="640" y="1300.2399999999998" as="sourcePoint" />
            <mxPoint x="510" y="1300" as="targetPoint" />
            <Array as="points">
              <mxPoint x="580" y="1300" />
            </Array>
          </mxGeometry>
        </mxCell>
        <mxCell id="RcAz8te14pZP037oVRHO-123" value="Display Pant Purchase&amp;nbsp;&lt;div&gt;History&lt;/div&gt;" style="text;html=1;align=center;verticalAlign=middle;resizable=0;points=[];autosize=1;strokeColor=none;fillColor=none;" parent="1" vertex="1">
          <mxGeometry x="505" y="1260" width="150" height="40" as="geometry" />
        </mxCell>
        <mxCell id="RcAz8te14pZP037oVRHO-124" value="" style="endArrow=open;endFill=1;endSize=12;html=1;rounded=0;dashed=1;" parent="1" target="RcAz8te14pZP037oVRHO-7" edge="1">
          <mxGeometry width="160" relative="1" as="geometry">
            <mxPoint x="480" y="1320.2399999999998" as="sourcePoint" />
            <mxPoint x="350" y="1320" as="targetPoint" />
            <Array as="points">
              <mxPoint x="420" y="1320" />
            </Array>
          </mxGeometry>
        </mxCell>
        <mxCell id="RcAz8te14pZP037oVRHO-125" value="Display Pant Purchase&amp;nbsp;&lt;div&gt;History&lt;/div&gt;" style="text;html=1;align=center;verticalAlign=middle;resizable=0;points=[];autosize=1;strokeColor=none;fillColor=none;" parent="1" vertex="1">
          <mxGeometry x="335" y="1280" width="150" height="40" as="geometry" />
        </mxCell>
        <mxCell id="RcAz8te14pZP037oVRHO-126" value="" style="endArrow=none;dashed=1;html=1;rounded=0;" parent="1" edge="1">
          <mxGeometry width="50" height="50" relative="1" as="geometry">
            <mxPoint x="154.86" y="1350" as="sourcePoint" />
            <mxPoint x="155" y="1410" as="targetPoint" />
          </mxGeometry>
        </mxCell>
        <mxCell id="RcAz8te14pZP037oVRHO-127" value="" style="endArrow=none;dashed=1;html=1;rounded=0;" parent="1" edge="1">
          <mxGeometry width="50" height="50" relative="1" as="geometry">
            <mxPoint x="324.86" y="1350" as="sourcePoint" />
            <mxPoint x="325" y="1410" as="targetPoint" />
          </mxGeometry>
        </mxCell>
        <mxCell id="RcAz8te14pZP037oVRHO-128" value="" style="endArrow=none;dashed=1;html=1;rounded=0;" parent="1" edge="1">
          <mxGeometry width="50" height="50" relative="1" as="geometry">
            <mxPoint x="494.86" y="1340" as="sourcePoint" />
            <mxPoint x="495" y="1400" as="targetPoint" />
          </mxGeometry>
        </mxCell>
        <mxCell id="RcAz8te14pZP037oVRHO-129" value="" style="endArrow=none;dashed=1;html=1;rounded=0;" parent="1" edge="1">
          <mxGeometry width="50" height="50" relative="1" as="geometry">
            <mxPoint x="655" y="1350" as="sourcePoint" />
            <mxPoint x="655.14" y="1410" as="targetPoint" />
          </mxGeometry>
        </mxCell>
        <mxCell id="RcAz8te14pZP037oVRHO-130" value="" style="endArrow=none;dashed=1;html=1;rounded=0;" parent="1" source="RcAz8te14pZP037oVRHO-137" edge="1">
          <mxGeometry width="50" height="50" relative="1" as="geometry">
            <mxPoint x="814.86" y="1350" as="sourcePoint" />
            <mxPoint x="815" y="1410" as="targetPoint" />
          </mxGeometry>
        </mxCell>
        <mxCell id="RcAz8te14pZP037oVRHO-131" value="" style="endArrow=none;dashed=1;html=1;rounded=0;" parent="1" edge="1">
          <mxGeometry width="50" height="50" relative="1" as="geometry">
            <mxPoint x="974.86" y="1340" as="sourcePoint" />
            <mxPoint x="975" y="1400" as="targetPoint" />
          </mxGeometry>
        </mxCell>
        <mxCell id="RcAz8te14pZP037oVRHO-132" value="" style="endArrow=none;dashed=1;html=1;rounded=0;" parent="1" source="RcAz8te14pZP037oVRHO-135" edge="1">
          <mxGeometry width="50" height="50" relative="1" as="geometry">
            <mxPoint x="1134.8600000000001" y="1360" as="sourcePoint" />
            <mxPoint x="1135" y="1420" as="targetPoint" />
          </mxGeometry>
        </mxCell>
        <mxCell id="RcAz8te14pZP037oVRHO-133" value="" style="shape=umlDestroy;whiteSpace=wrap;html=1;strokeWidth=3;targetShapes=umlLifeline;" parent="1" vertex="1">
          <mxGeometry x="965" y="1400" width="20" height="20" as="geometry" />
        </mxCell>
        <mxCell id="RcAz8te14pZP037oVRHO-134" value="" style="endArrow=none;dashed=1;html=1;rounded=0;" parent="1" target="RcAz8te14pZP037oVRHO-135" edge="1">
          <mxGeometry width="50" height="50" relative="1" as="geometry">
            <mxPoint x="1134.8600000000001" y="1360" as="sourcePoint" />
            <mxPoint x="1135" y="1420" as="targetPoint" />
          </mxGeometry>
        </mxCell>
        <mxCell id="RcAz8te14pZP037oVRHO-135" value="" style="shape=umlDestroy;whiteSpace=wrap;html=1;strokeWidth=3;targetShapes=umlLifeline;" parent="1" vertex="1">
          <mxGeometry x="1125" y="1410" width="20" height="20" as="geometry" />
        </mxCell>
        <mxCell id="RcAz8te14pZP037oVRHO-136" value="" style="endArrow=none;dashed=1;html=1;rounded=0;" parent="1" target="RcAz8te14pZP037oVRHO-137" edge="1">
          <mxGeometry width="50" height="50" relative="1" as="geometry">
            <mxPoint x="814.86" y="1350" as="sourcePoint" />
            <mxPoint x="815" y="1410" as="targetPoint" />
          </mxGeometry>
        </mxCell>
        <mxCell id="RcAz8te14pZP037oVRHO-137" value="" style="shape=umlDestroy;whiteSpace=wrap;html=1;strokeWidth=3;targetShapes=umlLifeline;" parent="1" vertex="1">
          <mxGeometry x="805" y="1400" width="20" height="20" as="geometry" />
        </mxCell>
      </root>
    </mxGraphModel>
  </diagram>
  <diagram id="xQms6wufwdaxNJGQ0Y0d" name="Page-3">
    <mxGraphModel dx="1002" dy="577" grid="1" gridSize="10" guides="1" tooltips="1" connect="1" arrows="1" fold="1" page="1" pageScale="1" pageWidth="4681" pageHeight="3300" math="0" shadow="0">
      <root>
        <mxCell id="0" />
        <mxCell id="1" parent="0" />
        <mxCell id="C_ZqRgWWVpizvAxHJHnn-41" style="edgeStyle=orthogonalEdgeStyle;rounded=0;orthogonalLoop=1;jettySize=auto;html=1;endArrow=none;endFill=0;" parent="1" source="WwYoyDxvcjU4gZqpaFCE-1" edge="1">
          <mxGeometry relative="1" as="geometry">
            <mxPoint x="830" y="160" as="targetPoint" />
          </mxGeometry>
        </mxCell>
        <mxCell id="WwYoyDxvcjU4gZqpaFCE-1" value="&lt;font style=&quot;font-size: 15px;&quot;&gt;&lt;b&gt;McGregor Institute of Technology of Botanical Training&lt;/b&gt;&lt;/font&gt;" style="rounded=0;whiteSpace=wrap;html=1;fillColor=#dae8fc;strokeColor=#000000;" parent="1" vertex="1">
          <mxGeometry x="610" y="50" width="440" height="60" as="geometry" />
        </mxCell>
        <mxCell id="WwYoyDxvcjU4gZqpaFCE-18" style="edgeStyle=orthogonalEdgeStyle;rounded=0;orthogonalLoop=1;jettySize=auto;html=1;endArrow=none;endFill=0;" parent="1" edge="1">
          <mxGeometry relative="1" as="geometry">
            <mxPoint x="400" y="670" as="targetPoint" />
            <mxPoint x="399.99999999999955" y="260" as="sourcePoint" />
          </mxGeometry>
        </mxCell>
        <mxCell id="C_ZqRgWWVpizvAxHJHnn-43" style="edgeStyle=orthogonalEdgeStyle;rounded=0;orthogonalLoop=1;jettySize=auto;html=1;endArrow=none;endFill=0;" parent="1" source="WwYoyDxvcjU4gZqpaFCE-2" edge="1">
          <mxGeometry relative="1" as="geometry">
            <mxPoint x="460" y="160" as="targetPoint" />
          </mxGeometry>
        </mxCell>
        <mxCell id="WwYoyDxvcjU4gZqpaFCE-2" value="&lt;b&gt;&lt;font style=&quot;font-size: 14px;&quot;&gt;Build a features list&lt;/font&gt;&lt;/b&gt;" style="rounded=0;whiteSpace=wrap;html=1;fillColor=#fff2cc;strokeColor=#000000;" parent="1" vertex="1">
          <mxGeometry x="380" y="220" width="160" height="40" as="geometry" />
        </mxCell>
        <mxCell id="WwYoyDxvcjU4gZqpaFCE-8" style="edgeStyle=orthogonalEdgeStyle;rounded=0;orthogonalLoop=1;jettySize=auto;html=1;endArrow=none;endFill=0;endSize=6;targetPerimeterSpacing=2;jumpSize=10;sourcePerimeterSpacing=-1;startSize=5;strokeWidth=1;" parent="1" edge="1">
          <mxGeometry relative="1" as="geometry">
            <mxPoint x="60" y="920" as="targetPoint" />
            <mxPoint x="60" y="260" as="sourcePoint" />
          </mxGeometry>
        </mxCell>
        <mxCell id="C_ZqRgWWVpizvAxHJHnn-42" style="edgeStyle=orthogonalEdgeStyle;rounded=0;orthogonalLoop=1;jettySize=auto;html=1;endArrow=none;endFill=0;" parent="1" source="WwYoyDxvcjU4gZqpaFCE-3" edge="1">
          <mxGeometry relative="1" as="geometry">
            <mxPoint x="150" y="160" as="targetPoint" />
          </mxGeometry>
        </mxCell>
        <mxCell id="WwYoyDxvcjU4gZqpaFCE-3" value="&lt;b&gt;&lt;font style=&quot;font-size: 14px;&quot;&gt;Develop an overall model&lt;/font&gt;&lt;/b&gt;" style="rounded=0;whiteSpace=wrap;html=1;fillColor=#fff2cc;strokeColor=#000000;" parent="1" vertex="1">
          <mxGeometry x="50" y="220" width="200" height="40" as="geometry" />
        </mxCell>
        <mxCell id="WwYoyDxvcjU4gZqpaFCE-25" style="edgeStyle=orthogonalEdgeStyle;rounded=0;orthogonalLoop=1;jettySize=auto;html=1;endArrow=none;endFill=0;" parent="1" edge="1">
          <mxGeometry relative="1" as="geometry">
            <mxPoint x="730" y="860" as="targetPoint" />
            <mxPoint x="730" y="260" as="sourcePoint" />
          </mxGeometry>
        </mxCell>
        <mxCell id="C_ZqRgWWVpizvAxHJHnn-44" style="edgeStyle=orthogonalEdgeStyle;rounded=0;orthogonalLoop=1;jettySize=auto;html=1;endArrow=none;endFill=0;" parent="1" source="WwYoyDxvcjU4gZqpaFCE-4" edge="1">
          <mxGeometry relative="1" as="geometry">
            <mxPoint x="800" y="160" as="targetPoint" />
          </mxGeometry>
        </mxCell>
        <mxCell id="WwYoyDxvcjU4gZqpaFCE-4" value="&lt;b&gt;&lt;font style=&quot;font-size: 14px;&quot;&gt;Plan by Feature&lt;/font&gt;&lt;/b&gt;" style="rounded=0;whiteSpace=wrap;html=1;fillColor=#fff2cc;strokeColor=#000000;" parent="1" vertex="1">
          <mxGeometry x="720" y="220" width="160" height="40" as="geometry" />
        </mxCell>
        <mxCell id="WwYoyDxvcjU4gZqpaFCE-31" style="edgeStyle=orthogonalEdgeStyle;rounded=0;orthogonalLoop=1;jettySize=auto;html=1;endArrow=none;endFill=0;" parent="1" edge="1">
          <mxGeometry relative="1" as="geometry">
            <mxPoint x="1060" y="760" as="targetPoint" />
            <mxPoint x="1060" y="260" as="sourcePoint" />
          </mxGeometry>
        </mxCell>
        <mxCell id="C_ZqRgWWVpizvAxHJHnn-45" style="edgeStyle=orthogonalEdgeStyle;rounded=0;orthogonalLoop=1;jettySize=auto;html=1;endArrow=none;endFill=0;" parent="1" source="WwYoyDxvcjU4gZqpaFCE-6" edge="1">
          <mxGeometry relative="1" as="geometry">
            <mxPoint x="1120" y="160" as="targetPoint" />
          </mxGeometry>
        </mxCell>
        <mxCell id="WwYoyDxvcjU4gZqpaFCE-6" value="&lt;b&gt;&lt;font style=&quot;font-size: 14px;&quot;&gt;Design by Feature&lt;/font&gt;&lt;/b&gt;" style="rounded=0;whiteSpace=wrap;html=1;fillColor=#fff2cc;strokeColor=#000000;" parent="1" vertex="1">
          <mxGeometry x="1040" y="220" width="160" height="40" as="geometry" />
        </mxCell>
        <mxCell id="WwYoyDxvcjU4gZqpaFCE-45" style="edgeStyle=orthogonalEdgeStyle;rounded=0;orthogonalLoop=1;jettySize=auto;html=1;endArrow=none;endFill=0;" parent="1" edge="1">
          <mxGeometry relative="1" as="geometry">
            <mxPoint x="1350" y="830" as="targetPoint" />
            <mxPoint x="1350" y="260" as="sourcePoint" />
          </mxGeometry>
        </mxCell>
        <mxCell id="C_ZqRgWWVpizvAxHJHnn-46" style="edgeStyle=orthogonalEdgeStyle;rounded=0;orthogonalLoop=1;jettySize=auto;html=1;endArrow=none;endFill=0;" parent="1" source="WwYoyDxvcjU4gZqpaFCE-7" edge="1">
          <mxGeometry relative="1" as="geometry">
            <mxPoint x="1400" y="160" as="targetPoint" />
          </mxGeometry>
        </mxCell>
        <mxCell id="WwYoyDxvcjU4gZqpaFCE-7" value="&lt;b&gt;&lt;font style=&quot;font-size: 14px;&quot;&gt;Build by Feature&lt;/font&gt;&lt;/b&gt;" style="rounded=0;whiteSpace=wrap;html=1;fillColor=#fff2cc;strokeColor=#000000;" parent="1" vertex="1">
          <mxGeometry x="1320" y="220" width="160" height="40" as="geometry" />
        </mxCell>
        <mxCell id="C_ZqRgWWVpizvAxHJHnn-2" style="edgeStyle=orthogonalEdgeStyle;rounded=0;orthogonalLoop=1;jettySize=auto;html=1;endArrow=none;endFill=0;" parent="1" source="WwYoyDxvcjU4gZqpaFCE-9" edge="1">
          <mxGeometry relative="1" as="geometry">
            <mxPoint x="60" y="455" as="targetPoint" />
          </mxGeometry>
        </mxCell>
        <mxCell id="WwYoyDxvcjU4gZqpaFCE-9" value="&lt;div style=&quot;&quot;&gt;&lt;span style=&quot;font-size: 14px; background-color: initial;&quot;&gt;Identify primary aim of the project&lt;/span&gt;&lt;/div&gt;" style="rounded=0;whiteSpace=wrap;html=1;align=center;" parent="1" vertex="1">
          <mxGeometry x="90" y="430" width="240" height="50" as="geometry" />
        </mxCell>
        <mxCell id="C_ZqRgWWVpizvAxHJHnn-1" style="edgeStyle=orthogonalEdgeStyle;rounded=0;orthogonalLoop=1;jettySize=auto;html=1;endArrow=none;endFill=0;" parent="1" source="WwYoyDxvcjU4gZqpaFCE-10" edge="1">
          <mxGeometry relative="1" as="geometry">
            <mxPoint x="60" y="355.0000000000001" as="targetPoint" />
          </mxGeometry>
        </mxCell>
        <mxCell id="WwYoyDxvcjU4gZqpaFCE-10" value="&lt;span style=&quot;font-size: 14px;&quot;&gt;Formulate Project teams&lt;/span&gt;" style="rounded=0;whiteSpace=wrap;html=1;" parent="1" vertex="1">
          <mxGeometry x="90" y="330" width="210" height="50" as="geometry" />
        </mxCell>
        <mxCell id="C_ZqRgWWVpizvAxHJHnn-3" style="edgeStyle=orthogonalEdgeStyle;rounded=0;orthogonalLoop=1;jettySize=auto;html=1;endArrow=none;endFill=0;" parent="1" source="WwYoyDxvcjU4gZqpaFCE-12" edge="1">
          <mxGeometry relative="1" as="geometry">
            <mxPoint x="60" y="550" as="targetPoint" />
          </mxGeometry>
        </mxCell>
        <mxCell id="WwYoyDxvcjU4gZqpaFCE-12" value="&lt;div style=&quot;&quot;&gt;&lt;span style=&quot;font-family: Arial, sans-serif; font-size: 14px; background-color: initial;&quot;&gt;Involve team&amp;nbsp; and&amp;nbsp; stakeholders to gather requirements&amp;nbsp;&lt;/span&gt;&lt;/div&gt;" style="rounded=0;whiteSpace=wrap;html=1;align=center;" parent="1" vertex="1">
          <mxGeometry x="90" y="520" width="220" height="60" as="geometry" />
        </mxCell>
        <mxCell id="C_ZqRgWWVpizvAxHJHnn-5" style="edgeStyle=orthogonalEdgeStyle;rounded=0;orthogonalLoop=1;jettySize=auto;html=1;endArrow=none;endFill=0;" parent="1" source="WwYoyDxvcjU4gZqpaFCE-13" edge="1">
          <mxGeometry relative="1" as="geometry">
            <mxPoint x="60" y="735" as="targetPoint" />
          </mxGeometry>
        </mxCell>
        <mxCell id="WwYoyDxvcjU4gZqpaFCE-13" value="&lt;font face=&quot;Arial, sans-serif&quot;&gt;&lt;span style=&quot;font-size: 14px;&quot;&gt;Set Timelines and Milestones&lt;/span&gt;&lt;/font&gt;" style="rounded=0;whiteSpace=wrap;html=1;" parent="1" vertex="1">
          <mxGeometry x="90" y="710" width="220" height="50" as="geometry" />
        </mxCell>
        <mxCell id="C_ZqRgWWVpizvAxHJHnn-4" style="edgeStyle=orthogonalEdgeStyle;rounded=0;orthogonalLoop=1;jettySize=auto;html=1;endArrow=none;endFill=0;" parent="1" source="WwYoyDxvcjU4gZqpaFCE-15" edge="1">
          <mxGeometry relative="1" as="geometry">
            <mxPoint x="60" y="645" as="targetPoint" />
          </mxGeometry>
        </mxCell>
        <mxCell id="WwYoyDxvcjU4gZqpaFCE-15" value="&lt;font face=&quot;Arial, sans-serif&quot;&gt;&lt;span style=&quot;font-size: 14px;&quot;&gt;Establish scope and clear boundaries&lt;/span&gt;&lt;/font&gt;" style="rounded=0;whiteSpace=wrap;html=1;" parent="1" vertex="1">
          <mxGeometry x="90" y="620" width="220" height="50" as="geometry" />
        </mxCell>
        <mxCell id="C_ZqRgWWVpizvAxHJHnn-6" style="edgeStyle=orthogonalEdgeStyle;rounded=0;orthogonalLoop=1;jettySize=auto;html=1;endArrow=none;endFill=0;" parent="1" source="WwYoyDxvcjU4gZqpaFCE-16" edge="1">
          <mxGeometry relative="1" as="geometry">
            <mxPoint x="60" y="820" as="targetPoint" />
          </mxGeometry>
        </mxCell>
        <mxCell id="WwYoyDxvcjU4gZqpaFCE-16" value="&lt;font face=&quot;Arial, sans-serif&quot;&gt;&lt;span style=&quot;font-size: 14px;&quot;&gt;Identify potential risks and uncertainties&lt;/span&gt;&lt;/font&gt;" style="rounded=0;whiteSpace=wrap;html=1;" parent="1" vertex="1">
          <mxGeometry x="90" y="795" width="220" height="50" as="geometry" />
        </mxCell>
        <mxCell id="C_ZqRgWWVpizvAxHJHnn-7" style="edgeStyle=orthogonalEdgeStyle;rounded=0;orthogonalLoop=1;jettySize=auto;html=1;endArrow=none;endFill=0;" parent="1" source="WwYoyDxvcjU4gZqpaFCE-17" edge="1">
          <mxGeometry relative="1" as="geometry">
            <mxPoint x="60" y="915" as="targetPoint" />
          </mxGeometry>
        </mxCell>
        <mxCell id="WwYoyDxvcjU4gZqpaFCE-17" value="&lt;font face=&quot;Arial, sans-serif&quot;&gt;&lt;span style=&quot;font-size: 14px;&quot;&gt;Establish communication plan&lt;/span&gt;&lt;/font&gt;" style="rounded=0;whiteSpace=wrap;html=1;" parent="1" vertex="1">
          <mxGeometry x="90" y="890" width="220" height="50" as="geometry" />
        </mxCell>
        <mxCell id="C_ZqRgWWVpizvAxHJHnn-8" style="edgeStyle=orthogonalEdgeStyle;rounded=0;orthogonalLoop=1;jettySize=auto;html=1;endArrow=none;endFill=0;" parent="1" source="WwYoyDxvcjU4gZqpaFCE-19" edge="1">
          <mxGeometry relative="1" as="geometry">
            <mxPoint x="400" y="355" as="targetPoint" />
          </mxGeometry>
        </mxCell>
        <mxCell id="WwYoyDxvcjU4gZqpaFCE-19" value="&lt;span style=&quot;font-size: 14px;&quot;&gt;List out all essential features&amp;nbsp;&lt;/span&gt;" style="rounded=0;whiteSpace=wrap;html=1;" parent="1" vertex="1">
          <mxGeometry x="430" y="330" width="210" height="50" as="geometry" />
        </mxCell>
        <mxCell id="C_ZqRgWWVpizvAxHJHnn-9" style="edgeStyle=orthogonalEdgeStyle;rounded=0;orthogonalLoop=1;jettySize=auto;html=1;endArrow=none;endFill=0;" parent="1" source="WwYoyDxvcjU4gZqpaFCE-21" edge="1">
          <mxGeometry relative="1" as="geometry">
            <mxPoint x="400" y="470" as="targetPoint" />
          </mxGeometry>
        </mxCell>
        <mxCell id="WwYoyDxvcjU4gZqpaFCE-21" value="&lt;span style=&quot;font-size: 14px;&quot;&gt;Categorize features based on functionalities&amp;nbsp;&lt;/span&gt;" style="rounded=0;whiteSpace=wrap;html=1;" parent="1" vertex="1">
          <mxGeometry x="430" y="440" width="220" height="60" as="geometry" />
        </mxCell>
        <mxCell id="C_ZqRgWWVpizvAxHJHnn-10" style="edgeStyle=orthogonalEdgeStyle;rounded=0;orthogonalLoop=1;jettySize=auto;html=1;endArrow=none;endFill=0;" parent="1" source="WwYoyDxvcjU4gZqpaFCE-23" edge="1">
          <mxGeometry relative="1" as="geometry">
            <mxPoint x="400" y="565" as="targetPoint" />
          </mxGeometry>
        </mxCell>
        <mxCell id="WwYoyDxvcjU4gZqpaFCE-23" value="&lt;span style=&quot;font-size: 14px;&quot;&gt;Develop clear and concise development for&amp;nbsp; features&lt;/span&gt;" style="rounded=0;whiteSpace=wrap;html=1;" parent="1" vertex="1">
          <mxGeometry x="430" y="540" width="220" height="50" as="geometry" />
        </mxCell>
        <mxCell id="C_ZqRgWWVpizvAxHJHnn-11" style="edgeStyle=orthogonalEdgeStyle;rounded=0;orthogonalLoop=1;jettySize=auto;html=1;endArrow=none;endFill=0;" parent="1" source="WwYoyDxvcjU4gZqpaFCE-24" edge="1">
          <mxGeometry relative="1" as="geometry">
            <mxPoint x="400" y="665" as="targetPoint" />
          </mxGeometry>
        </mxCell>
        <mxCell id="WwYoyDxvcjU4gZqpaFCE-24" value="&lt;span style=&quot;font-size: 14px;&quot;&gt;Document the final feature list clearly&lt;/span&gt;" style="rounded=0;whiteSpace=wrap;html=1;" parent="1" vertex="1">
          <mxGeometry x="430" y="640" width="220" height="50" as="geometry" />
        </mxCell>
        <mxCell id="C_ZqRgWWVpizvAxHJHnn-12" style="edgeStyle=orthogonalEdgeStyle;rounded=0;orthogonalLoop=1;jettySize=auto;html=1;endArrow=none;endFill=0;" parent="1" source="WwYoyDxvcjU4gZqpaFCE-26" edge="1">
          <mxGeometry relative="1" as="geometry">
            <mxPoint x="730" y="362.5" as="targetPoint" />
          </mxGeometry>
        </mxCell>
        <mxCell id="WwYoyDxvcjU4gZqpaFCE-26" value="&lt;span style=&quot;font-size: 14px;&quot;&gt;Prioritize&amp;nbsp; features based on importance and complexity&amp;nbsp;&lt;/span&gt;" style="rounded=0;whiteSpace=wrap;html=1;" parent="1" vertex="1">
          <mxGeometry x="760" y="325" width="220" height="75" as="geometry" />
        </mxCell>
        <mxCell id="C_ZqRgWWVpizvAxHJHnn-13" style="edgeStyle=orthogonalEdgeStyle;rounded=0;orthogonalLoop=1;jettySize=auto;html=1;endArrow=none;endFill=0;" parent="1" source="WwYoyDxvcjU4gZqpaFCE-28" edge="1">
          <mxGeometry relative="1" as="geometry">
            <mxPoint x="730" y="480" as="targetPoint" />
          </mxGeometry>
        </mxCell>
        <mxCell id="WwYoyDxvcjU4gZqpaFCE-28" value="&lt;span style=&quot;font-size: 14px;&quot;&gt;Assign features to teams based expertise and availability&lt;/span&gt;" style="rounded=0;whiteSpace=wrap;html=1;" parent="1" vertex="1">
          <mxGeometry x="760" y="440" width="220" height="80" as="geometry" />
        </mxCell>
        <mxCell id="C_ZqRgWWVpizvAxHJHnn-16" style="edgeStyle=orthogonalEdgeStyle;rounded=0;orthogonalLoop=1;jettySize=auto;html=1;endArrow=none;endFill=0;" parent="1" source="WwYoyDxvcjU4gZqpaFCE-29" edge="1">
          <mxGeometry relative="1" as="geometry">
            <mxPoint x="730" y="765" as="targetPoint" />
          </mxGeometry>
        </mxCell>
        <mxCell id="WwYoyDxvcjU4gZqpaFCE-29" value="&lt;span style=&quot;font-size: 14px;&quot;&gt;Define boundaries and interfaces to integrate feature sets&amp;nbsp;&lt;/span&gt;" style="rounded=0;whiteSpace=wrap;html=1;" parent="1" vertex="1">
          <mxGeometry x="760" y="735" width="220" height="60" as="geometry" />
        </mxCell>
        <mxCell id="C_ZqRgWWVpizvAxHJHnn-17" style="edgeStyle=orthogonalEdgeStyle;rounded=0;orthogonalLoop=1;jettySize=auto;html=1;endArrow=none;endFill=0;" parent="1" source="WwYoyDxvcjU4gZqpaFCE-30" edge="1">
          <mxGeometry relative="1" as="geometry">
            <mxPoint x="730" y="860" as="targetPoint" />
          </mxGeometry>
        </mxCell>
        <mxCell id="WwYoyDxvcjU4gZqpaFCE-30" value="&lt;span style=&quot;font-size: 14px;&quot;&gt;Estimate time and resources for each feature&amp;nbsp;&lt;/span&gt;" style="rounded=0;whiteSpace=wrap;html=1;" parent="1" vertex="1">
          <mxGeometry x="760" y="830" width="220" height="60" as="geometry" />
        </mxCell>
        <mxCell id="C_ZqRgWWVpizvAxHJHnn-19" style="edgeStyle=orthogonalEdgeStyle;rounded=0;orthogonalLoop=1;jettySize=auto;html=1;endArrow=none;endFill=0;" parent="1" source="WwYoyDxvcjU4gZqpaFCE-32" edge="1">
          <mxGeometry relative="1" as="geometry">
            <mxPoint x="1060" y="461.25" as="targetPoint" />
          </mxGeometry>
        </mxCell>
        <mxCell id="WwYoyDxvcjU4gZqpaFCE-32" value="&lt;span style=&quot;font-size: 14px;&quot;&gt;Prepare UML diagrams&amp;nbsp;&lt;/span&gt;" style="rounded=0;whiteSpace=wrap;html=1;" parent="1" vertex="1">
          <mxGeometry x="1090" y="430" width="200" height="62.5" as="geometry" />
        </mxCell>
        <mxCell id="C_ZqRgWWVpizvAxHJHnn-18" style="edgeStyle=orthogonalEdgeStyle;rounded=0;orthogonalLoop=1;jettySize=auto;html=1;endArrow=none;endFill=0;" parent="1" source="WwYoyDxvcjU4gZqpaFCE-34" edge="1">
          <mxGeometry relative="1" as="geometry">
            <mxPoint x="1060" y="358.75" as="targetPoint" />
          </mxGeometry>
        </mxCell>
        <mxCell id="WwYoyDxvcjU4gZqpaFCE-34" value="&lt;span style=&quot;font-size: 14px;&quot;&gt;Develop Design concepts and prototypes&amp;nbsp;&lt;/span&gt;" style="rounded=0;whiteSpace=wrap;html=1;" parent="1" vertex="1">
          <mxGeometry x="1080" y="325" width="200" height="72.5" as="geometry" />
        </mxCell>
        <mxCell id="C_ZqRgWWVpizvAxHJHnn-20" style="edgeStyle=orthogonalEdgeStyle;rounded=0;orthogonalLoop=1;jettySize=auto;html=1;endArrow=none;endFill=0;" parent="1" source="WwYoyDxvcjU4gZqpaFCE-35" edge="1">
          <mxGeometry relative="1" as="geometry">
            <mxPoint x="1060" y="558.75" as="targetPoint" />
          </mxGeometry>
        </mxCell>
        <mxCell id="WwYoyDxvcjU4gZqpaFCE-35" value="&lt;span style=&quot;font-size: 14px;&quot;&gt;Incorporate feedbacks to finalize designs&lt;/span&gt;" style="rounded=0;whiteSpace=wrap;html=1;" parent="1" vertex="1">
          <mxGeometry x="1090" y="527.5" width="200" height="62.5" as="geometry" />
        </mxCell>
        <mxCell id="C_ZqRgWWVpizvAxHJHnn-14" style="edgeStyle=orthogonalEdgeStyle;rounded=0;orthogonalLoop=1;jettySize=auto;html=1;endArrow=none;endFill=0;" parent="1" source="WwYoyDxvcjU4gZqpaFCE-37" edge="1">
          <mxGeometry relative="1" as="geometry">
            <mxPoint x="730" y="590" as="targetPoint" />
          </mxGeometry>
        </mxCell>
        <mxCell id="WwYoyDxvcjU4gZqpaFCE-37" value="&lt;span style=&quot;font-size: 14px;&quot;&gt;Outline specific scenarios that the feature should support&lt;/span&gt;" style="rounded=0;whiteSpace=wrap;html=1;" parent="1" vertex="1">
          <mxGeometry x="760" y="560" width="220" height="60" as="geometry" />
        </mxCell>
        <mxCell id="C_ZqRgWWVpizvAxHJHnn-15" style="edgeStyle=orthogonalEdgeStyle;rounded=0;orthogonalLoop=1;jettySize=auto;html=1;endArrow=none;endFill=0;" parent="1" source="WwYoyDxvcjU4gZqpaFCE-40" edge="1">
          <mxGeometry relative="1" as="geometry">
            <mxPoint x="730" y="670" as="targetPoint" />
          </mxGeometry>
        </mxCell>
        <mxCell id="WwYoyDxvcjU4gZqpaFCE-40" value="&lt;span style=&quot;font-size: 14px;&quot;&gt;Establish validation criteria or conditions&lt;/span&gt;" style="rounded=0;whiteSpace=wrap;html=1;" parent="1" vertex="1">
          <mxGeometry x="760" y="640" width="220" height="60" as="geometry" />
        </mxCell>
        <mxCell id="C_ZqRgWWVpizvAxHJHnn-21" style="edgeStyle=orthogonalEdgeStyle;rounded=0;orthogonalLoop=1;jettySize=auto;html=1;endArrow=none;endFill=0;" parent="1" source="WwYoyDxvcjU4gZqpaFCE-42" edge="1">
          <mxGeometry relative="1" as="geometry">
            <mxPoint x="1060" y="658.75" as="targetPoint" />
          </mxGeometry>
        </mxCell>
        <mxCell id="WwYoyDxvcjU4gZqpaFCE-42" value="&lt;span style=&quot;font-size: 14px;&quot;&gt;Prepare the detailed design for each feature&lt;/span&gt;" style="rounded=0;whiteSpace=wrap;html=1;" parent="1" vertex="1">
          <mxGeometry x="1090" y="627.5" width="200" height="62.5" as="geometry" />
        </mxCell>
        <mxCell id="C_ZqRgWWVpizvAxHJHnn-22" style="edgeStyle=orthogonalEdgeStyle;rounded=0;orthogonalLoop=1;jettySize=auto;html=1;endArrow=none;endFill=0;" parent="1" source="WwYoyDxvcjU4gZqpaFCE-43" edge="1">
          <mxGeometry relative="1" as="geometry">
            <mxPoint x="1060" y="758.75" as="targetPoint" />
          </mxGeometry>
        </mxCell>
        <mxCell id="WwYoyDxvcjU4gZqpaFCE-43" value="&lt;span style=&quot;font-size: 14px;&quot;&gt;Incorporate feedback to finalize designs&lt;/span&gt;" style="rounded=0;whiteSpace=wrap;html=1;" parent="1" vertex="1">
          <mxGeometry x="1090" y="727.5" width="200" height="62.5" as="geometry" />
        </mxCell>
        <mxCell id="C_ZqRgWWVpizvAxHJHnn-31" style="edgeStyle=orthogonalEdgeStyle;rounded=0;orthogonalLoop=1;jettySize=auto;html=1;endArrow=none;endFill=0;" parent="1" source="C_ZqRgWWVpizvAxHJHnn-23" edge="1">
          <mxGeometry relative="1" as="geometry">
            <mxPoint x="1350" y="356.25" as="targetPoint" />
          </mxGeometry>
        </mxCell>
        <mxCell id="C_ZqRgWWVpizvAxHJHnn-23" value="&lt;span style=&quot;font-size: 14px;&quot;&gt;Implement feature functionality&lt;/span&gt;" style="rounded=0;whiteSpace=wrap;html=1;" parent="1" vertex="1">
          <mxGeometry x="1380" y="325" width="160" height="62.5" as="geometry" />
        </mxCell>
        <mxCell id="C_ZqRgWWVpizvAxHJHnn-33" style="edgeStyle=orthogonalEdgeStyle;rounded=0;orthogonalLoop=1;jettySize=auto;html=1;endArrow=none;endFill=0;" parent="1" source="C_ZqRgWWVpizvAxHJHnn-24" edge="1">
          <mxGeometry relative="1" as="geometry">
            <mxPoint x="1350" y="455" as="targetPoint" />
          </mxGeometry>
        </mxCell>
        <mxCell id="C_ZqRgWWVpizvAxHJHnn-24" value="&lt;span style=&quot;font-size: 14px;&quot;&gt;Test features for accuracy&lt;/span&gt;" style="rounded=0;whiteSpace=wrap;html=1;" parent="1" vertex="1">
          <mxGeometry x="1380" y="430" width="160" height="50" as="geometry" />
        </mxCell>
        <mxCell id="C_ZqRgWWVpizvAxHJHnn-34" style="edgeStyle=orthogonalEdgeStyle;rounded=0;orthogonalLoop=1;jettySize=auto;html=1;endArrow=none;endFill=0;" parent="1" source="C_ZqRgWWVpizvAxHJHnn-27" edge="1">
          <mxGeometry relative="1" as="geometry">
            <mxPoint x="1350" y="550" as="targetPoint" />
          </mxGeometry>
        </mxCell>
        <mxCell id="C_ZqRgWWVpizvAxHJHnn-27" value="&lt;span style=&quot;font-size: 14px;&quot;&gt;Verify features aligns with criteria&lt;/span&gt;" style="rounded=0;whiteSpace=wrap;html=1;" parent="1" vertex="1">
          <mxGeometry x="1380" y="525" width="160" height="50" as="geometry" />
        </mxCell>
        <mxCell id="C_ZqRgWWVpizvAxHJHnn-36" style="edgeStyle=orthogonalEdgeStyle;rounded=0;orthogonalLoop=1;jettySize=auto;html=1;endArrow=none;endFill=0;" parent="1" source="C_ZqRgWWVpizvAxHJHnn-28" edge="1">
          <mxGeometry relative="1" as="geometry">
            <mxPoint x="1350" y="735" as="targetPoint" />
          </mxGeometry>
        </mxCell>
        <mxCell id="C_ZqRgWWVpizvAxHJHnn-28" value="&lt;span style=&quot;font-size: 14px;&quot;&gt;Collect the user feedback&lt;/span&gt;&lt;span style=&quot;color: rgba(0, 0, 0, 0); font-family: monospace; font-size: 0px; text-align: start; text-wrap: nowrap;&quot;&gt;%3CmxGraphModel%3E%3Croot%3E%3CmxCell%20id%3D%220%22%2F%3E%3CmxCell%20id%3D%221%22%20parent%3D%220%22%2F%3E%3CmxCell%20id%3D%222%22%20value%3D%22%26lt%3Bspan%20style%3D%26quot%3Bfont-size%3A%2014px%3B%26quot%3B%26gt%3B%26lt%3Bb%26gt%3BDocument%20and%20release%20feature%26lt%3B%2Fb%26gt%3B%26lt%3B%2Fspan%26gt%3B%22%20style%3D%22rounded%3D0%3BwhiteSpace%3Dwrap%3Bhtml%3D1%3B%22%20vertex%3D%221%22%20parent%3D%221%22%3E%3CmxGeometry%20x%3D%221390%22%20y%3D%22620%22%20width%3D%22160%22%20height%3D%2250%22%20as%3D%22geometry%22%2F%3E%3C%2FmxCell%3E%3C%2Froot%3E%3C%2FmxGraphModel%3E&lt;/span&gt;" style="rounded=0;whiteSpace=wrap;html=1;" parent="1" vertex="1">
          <mxGeometry x="1380" y="710" width="160" height="50" as="geometry" />
        </mxCell>
        <mxCell id="C_ZqRgWWVpizvAxHJHnn-35" style="edgeStyle=orthogonalEdgeStyle;rounded=0;orthogonalLoop=1;jettySize=auto;html=1;endArrow=none;endFill=0;" parent="1" source="C_ZqRgWWVpizvAxHJHnn-29" edge="1">
          <mxGeometry relative="1" as="geometry">
            <mxPoint x="1350" y="645" as="targetPoint" />
          </mxGeometry>
        </mxCell>
        <mxCell id="C_ZqRgWWVpizvAxHJHnn-29" value="&lt;span style=&quot;font-size: 14px;&quot;&gt;Document and release feature&lt;/span&gt;" style="rounded=0;whiteSpace=wrap;html=1;" parent="1" vertex="1">
          <mxGeometry x="1380" y="620" width="160" height="50" as="geometry" />
        </mxCell>
        <mxCell id="C_ZqRgWWVpizvAxHJHnn-37" style="edgeStyle=orthogonalEdgeStyle;rounded=0;orthogonalLoop=1;jettySize=auto;html=1;endArrow=none;endFill=0;" parent="1" source="C_ZqRgWWVpizvAxHJHnn-30" edge="1">
          <mxGeometry relative="1" as="geometry">
            <mxPoint x="1350" y="825" as="targetPoint" />
          </mxGeometry>
        </mxCell>
        <mxCell id="C_ZqRgWWVpizvAxHJHnn-30" value="&lt;span style=&quot;font-size: 14px;&quot;&gt;Iterate for improvement&lt;/span&gt;" style="rounded=0;whiteSpace=wrap;html=1;" parent="1" vertex="1">
          <mxGeometry x="1380" y="800" width="180" height="50" as="geometry" />
        </mxCell>
        <mxCell id="C_ZqRgWWVpizvAxHJHnn-40" value="" style="endArrow=none;html=1;rounded=0;endFill=0;" parent="1" edge="1">
          <mxGeometry width="50" height="50" relative="1" as="geometry">
            <mxPoint x="150" y="160" as="sourcePoint" />
            <mxPoint x="1400" y="160" as="targetPoint" />
          </mxGeometry>
        </mxCell>
      </root>
    </mxGraphModel>
  </diagram>
  <diagram id="VBayV0LGP-K1Qb3gt5KK" name="Page-4">
    <mxGraphModel dx="6908" dy="1282" grid="1" gridSize="10" guides="1" tooltips="1" connect="1" arrows="1" fold="1" page="1" pageScale="1" pageWidth="4681" pageHeight="3300" math="0" shadow="0">
      <root>
        <mxCell id="0" />
        <mxCell id="1" parent="0" />
        <mxCell id="4WiNHWwWMSygDms6drnl-1" value="System User" style="shape=umlActor;verticalLabelPosition=bottom;verticalAlign=top;html=1;outlineConnect=0;" parent="1" vertex="1">
          <mxGeometry y="189.5" width="40" height="69.99" as="geometry" />
        </mxCell>
        <mxCell id="4WiNHWwWMSygDms6drnl-13" style="edgeStyle=orthogonalEdgeStyle;rounded=0;orthogonalLoop=1;jettySize=auto;html=1;endArrow=none;endFill=0;" parent="1" edge="1">
          <mxGeometry relative="1" as="geometry">
            <mxPoint x="410.94000000000017" y="259.985" as="sourcePoint" />
            <mxPoint x="630" y="260" as="targetPoint" />
          </mxGeometry>
        </mxCell>
        <mxCell id="4WiNHWwWMSygDms6drnl-3" value="" style="rounded=0;whiteSpace=wrap;html=1;rotation=90;" parent="1" vertex="1">
          <mxGeometry x="247.5" y="168" width="187.89" height="138.99" as="geometry" />
        </mxCell>
        <mxCell id="4WiNHWwWMSygDms6drnl-5" style="edgeStyle=orthogonalEdgeStyle;rounded=0;orthogonalLoop=1;jettySize=auto;html=1;" parent="1" edge="1">
          <mxGeometry relative="1" as="geometry">
            <mxPoint x="90" y="250" as="sourcePoint" />
            <mxPoint x="260" y="250" as="targetPoint" />
          </mxGeometry>
        </mxCell>
        <mxCell id="4WiNHWwWMSygDms6drnl-7" style="edgeStyle=orthogonalEdgeStyle;rounded=0;orthogonalLoop=1;jettySize=auto;html=1;entryX=0.5;entryY=1.039;entryDx=0;entryDy=0;entryPerimeter=0;" parent="1" edge="1">
          <mxGeometry relative="1" as="geometry">
            <mxPoint x="90" y="210" as="sourcePoint" />
            <mxPoint x="267" y="210" as="targetPoint" />
          </mxGeometry>
        </mxCell>
        <mxCell id="4WiNHWwWMSygDms6drnl-8" style="edgeStyle=orthogonalEdgeStyle;rounded=0;orthogonalLoop=1;jettySize=auto;html=1;endArrow=none;endFill=0;" parent="1" edge="1">
          <mxGeometry relative="1" as="geometry">
            <mxPoint x="90" y="260" as="sourcePoint" />
            <mxPoint x="270" y="260" as="targetPoint" />
          </mxGeometry>
        </mxCell>
        <mxCell id="4WiNHWwWMSygDms6drnl-9" style="edgeStyle=orthogonalEdgeStyle;rounded=0;orthogonalLoop=1;jettySize=auto;html=1;entryX=0.5;entryY=1.039;entryDx=0;entryDy=0;entryPerimeter=0;" parent="1" edge="1">
          <mxGeometry relative="1" as="geometry">
            <mxPoint x="90" y="290" as="sourcePoint" />
            <mxPoint x="267" y="290" as="targetPoint" />
          </mxGeometry>
        </mxCell>
        <mxCell id="4WiNHWwWMSygDms6drnl-10" style="edgeStyle=orthogonalEdgeStyle;rounded=0;orthogonalLoop=1;jettySize=auto;html=1;entryX=0.5;entryY=1.039;entryDx=0;entryDy=0;entryPerimeter=0;" parent="1" edge="1">
          <mxGeometry relative="1" as="geometry">
            <mxPoint x="90" y="320" as="sourcePoint" />
            <mxPoint x="267" y="320" as="targetPoint" />
          </mxGeometry>
        </mxCell>
        <mxCell id="4WiNHWwWMSygDms6drnl-12" value="" style="rounded=0;whiteSpace=wrap;html=1;rotation=90;" parent="1" vertex="1">
          <mxGeometry x="605" y="170.5" width="192.89" height="138.99" as="geometry" />
        </mxCell>
        <mxCell id="4WiNHWwWMSygDms6drnl-19" style="edgeStyle=orthogonalEdgeStyle;rounded=0;orthogonalLoop=1;jettySize=auto;html=1;" parent="1" edge="1">
          <mxGeometry relative="1" as="geometry">
            <mxPoint x="620" y="170.5" as="sourcePoint" />
            <mxPoint x="420" y="170" as="targetPoint" />
          </mxGeometry>
        </mxCell>
        <mxCell id="4WiNHWwWMSygDms6drnl-21" style="edgeStyle=orthogonalEdgeStyle;rounded=0;orthogonalLoop=1;jettySize=auto;html=1;" parent="1" edge="1">
          <mxGeometry relative="1" as="geometry">
            <mxPoint x="420" y="200" as="sourcePoint" />
            <mxPoint x="615" y="200" as="targetPoint" />
          </mxGeometry>
        </mxCell>
        <mxCell id="4WiNHWwWMSygDms6drnl-24" style="edgeStyle=orthogonalEdgeStyle;rounded=0;orthogonalLoop=1;jettySize=auto;html=1;" parent="1" edge="1">
          <mxGeometry relative="1" as="geometry">
            <mxPoint x="605" y="224.33" as="sourcePoint" />
            <mxPoint x="425" y="224.11999999999998" as="targetPoint" />
          </mxGeometry>
        </mxCell>
        <mxCell id="4WiNHWwWMSygDms6drnl-25" style="edgeStyle=orthogonalEdgeStyle;rounded=0;orthogonalLoop=1;jettySize=auto;html=1;" parent="1" edge="1">
          <mxGeometry relative="1" as="geometry">
            <mxPoint x="420" y="250" as="sourcePoint" />
            <mxPoint x="600" y="250" as="targetPoint" />
          </mxGeometry>
        </mxCell>
        <mxCell id="4WiNHWwWMSygDms6drnl-27" style="edgeStyle=orthogonalEdgeStyle;rounded=0;orthogonalLoop=1;jettySize=auto;html=1;" parent="1" edge="1">
          <mxGeometry relative="1" as="geometry">
            <mxPoint x="420" y="280" as="sourcePoint" />
            <mxPoint x="600" y="280" as="targetPoint" />
          </mxGeometry>
        </mxCell>
        <mxCell id="4WiNHWwWMSygDms6drnl-28" style="edgeStyle=orthogonalEdgeStyle;rounded=0;orthogonalLoop=1;jettySize=auto;html=1;" parent="1" edge="1">
          <mxGeometry relative="1" as="geometry">
            <mxPoint x="420" y="300" as="sourcePoint" />
            <mxPoint x="600" y="300" as="targetPoint" />
          </mxGeometry>
        </mxCell>
        <mxCell id="4WiNHWwWMSygDms6drnl-29" style="edgeStyle=orthogonalEdgeStyle;rounded=0;orthogonalLoop=1;jettySize=auto;html=1;" parent="1" edge="1">
          <mxGeometry relative="1" as="geometry">
            <mxPoint x="600" y="320" as="sourcePoint" />
            <mxPoint x="420" y="320" as="targetPoint" />
          </mxGeometry>
        </mxCell>
        <mxCell id="4WiNHWwWMSygDms6drnl-31" value="" style="rounded=0;whiteSpace=wrap;html=1;rotation=90;" parent="1" vertex="1">
          <mxGeometry x="990" y="170" width="182.89" height="138.99" as="geometry" />
        </mxCell>
        <mxCell id="4WiNHWwWMSygDms6drnl-36" style="edgeStyle=orthogonalEdgeStyle;rounded=0;orthogonalLoop=1;jettySize=auto;html=1;" parent="1" edge="1">
          <mxGeometry relative="1" as="geometry">
            <mxPoint x="780" y="180" as="sourcePoint" />
            <mxPoint x="990" y="180.24" as="targetPoint" />
            <Array as="points">
              <mxPoint x="920" y="180" />
              <mxPoint x="920" y="180" />
            </Array>
          </mxGeometry>
        </mxCell>
        <mxCell id="4WiNHWwWMSygDms6drnl-38" style="edgeStyle=orthogonalEdgeStyle;rounded=0;orthogonalLoop=1;jettySize=auto;html=1;" parent="1" edge="1">
          <mxGeometry relative="1" as="geometry">
            <mxPoint x="985" y="217.52" as="sourcePoint" />
            <mxPoint x="785" y="217.38000000000002" as="targetPoint" />
          </mxGeometry>
        </mxCell>
        <mxCell id="4WiNHWwWMSygDms6drnl-39" style="edgeStyle=orthogonalEdgeStyle;rounded=0;orthogonalLoop=1;jettySize=auto;html=1;" parent="1" edge="1">
          <mxGeometry relative="1" as="geometry">
            <mxPoint x="790" y="248" as="sourcePoint" />
            <mxPoint x="980" y="248" as="targetPoint" />
          </mxGeometry>
        </mxCell>
        <mxCell id="4WiNHWwWMSygDms6drnl-41" style="edgeStyle=orthogonalEdgeStyle;rounded=0;orthogonalLoop=1;jettySize=auto;html=1;" parent="1" edge="1">
          <mxGeometry relative="1" as="geometry">
            <mxPoint x="780" y="290" as="sourcePoint" />
            <mxPoint x="1000" y="290" as="targetPoint" />
          </mxGeometry>
        </mxCell>
        <mxCell id="4WiNHWwWMSygDms6drnl-42" style="edgeStyle=orthogonalEdgeStyle;rounded=0;orthogonalLoop=1;jettySize=auto;html=1;" parent="1" edge="1">
          <mxGeometry relative="1" as="geometry">
            <mxPoint x="790" y="324" as="sourcePoint" />
            <mxPoint x="990" y="324" as="targetPoint" />
          </mxGeometry>
        </mxCell>
        <mxCell id="4WiNHWwWMSygDms6drnl-43" value="&lt;u&gt;:PurchasedPlants&lt;/u&gt;" style="rounded=0;whiteSpace=wrap;html=1;" parent="1" vertex="1">
          <mxGeometry x="340" y="570" width="150" height="40" as="geometry" />
        </mxCell>
        <mxCell id="4WiNHWwWMSygDms6drnl-44" value="&lt;u&gt;:PlantPurchaseTransaction&lt;/u&gt;" style="rounded=0;whiteSpace=wrap;html=1;" parent="1" vertex="1">
          <mxGeometry x="805" y="570" width="150" height="40" as="geometry" />
        </mxCell>
        <mxCell id="4WiNHWwWMSygDms6drnl-45" value="&lt;u&gt;:PlantCart&lt;/u&gt;" style="rounded=0;whiteSpace=wrap;html=1;" parent="1" vertex="1">
          <mxGeometry x="1136.44" y="570" width="150" height="40" as="geometry" />
        </mxCell>
        <mxCell id="4WiNHWwWMSygDms6drnl-47" value="" style="endArrow=none;html=1;rounded=0;entryX=0.711;entryY=-0.065;entryDx=0;entryDy=0;entryPerimeter=0;exitX=1.001;exitY=0.66;exitDx=0;exitDy=0;exitPerimeter=0;endFill=0;" parent="1" source="4WiNHWwWMSygDms6drnl-12" target="4WiNHWwWMSygDms6drnl-43" edge="1">
          <mxGeometry width="50" height="50" relative="1" as="geometry">
            <mxPoint x="710" y="470" as="sourcePoint" />
            <mxPoint x="760" y="420" as="targetPoint" />
          </mxGeometry>
        </mxCell>
        <mxCell id="4WiNHWwWMSygDms6drnl-48" value="" style="endArrow=none;html=1;rounded=0;entryX=0.5;entryY=0;entryDx=0;entryDy=0;exitX=1.008;exitY=0.664;exitDx=0;exitDy=0;exitPerimeter=0;endFill=0;" parent="1" source="4WiNHWwWMSygDms6drnl-12" target="4WiNHWwWMSygDms6drnl-44" edge="1">
          <mxGeometry width="50" height="50" relative="1" as="geometry">
            <mxPoint x="649" y="342" as="sourcePoint" />
            <mxPoint x="467" y="567" as="targetPoint" />
          </mxGeometry>
        </mxCell>
        <mxCell id="4WiNHWwWMSygDms6drnl-49" value="" style="endArrow=none;html=1;rounded=0;entryX=0.439;entryY=-0.044;entryDx=0;entryDy=0;entryPerimeter=0;exitX=1.005;exitY=0.661;exitDx=0;exitDy=0;exitPerimeter=0;endFill=0;" parent="1" source="4WiNHWwWMSygDms6drnl-12" target="4WiNHWwWMSygDms6drnl-45" edge="1">
          <mxGeometry width="50" height="50" relative="1" as="geometry">
            <mxPoint x="640" y="330" as="sourcePoint" />
            <mxPoint x="477" y="577" as="targetPoint" />
          </mxGeometry>
        </mxCell>
        <mxCell id="3Xy8w3cdOtjZZcHJkSoh-1" value="1: View Plants()" style="text;html=1;align=center;verticalAlign=middle;resizable=0;points=[];autosize=1;strokeColor=none;fillColor=none;" parent="1" vertex="1">
          <mxGeometry x="146" y="218" width="110" height="30" as="geometry" />
        </mxCell>
        <mxCell id="3Xy8w3cdOtjZZcHJkSoh-2" value="3: SelectPreferablePlants()" style="text;html=1;align=center;verticalAlign=middle;resizable=0;points=[];autosize=1;strokeColor=none;fillColor=none;" parent="1" vertex="1">
          <mxGeometry x="90" y="264.49" width="170" height="30" as="geometry" />
        </mxCell>
        <mxCell id="UXip8PJxLFzmAzZwL8fN-1" value="4: InitiatePurchaseProcess()" style="text;html=1;align=center;verticalAlign=middle;resizable=0;points=[];autosize=1;strokeColor=none;fillColor=none;" parent="1" vertex="1">
          <mxGeometry x="90" y="294.49" width="170" height="30" as="geometry" />
        </mxCell>
        <mxCell id="UXip8PJxLFzmAzZwL8fN-2" value="6: FillPaymentForm()" style="text;html=1;align=center;verticalAlign=middle;resizable=0;points=[];autosize=1;strokeColor=none;fillColor=none;" parent="1" vertex="1">
          <mxGeometry x="121" y="180" width="140" height="30" as="geometry" />
        </mxCell>
        <mxCell id="UXip8PJxLFzmAzZwL8fN-6" value="7.2: PurchasedConfirmedWithReceipt()" style="text;html=1;align=center;verticalAlign=middle;resizable=0;points=[];autosize=1;strokeColor=none;fillColor=none;" parent="1" vertex="1">
          <mxGeometry x="410" y="140" width="230" height="30" as="geometry" />
        </mxCell>
        <mxCell id="UXip8PJxLFzmAzZwL8fN-7" value="6.1: FilledPaymentForm()" style="text;html=1;align=center;verticalAlign=middle;resizable=0;points=[];autosize=1;strokeColor=none;fillColor=none;" parent="1" vertex="1">
          <mxGeometry x="435" y="170" width="160" height="30" as="geometry" />
        </mxCell>
        <mxCell id="UXip8PJxLFzmAzZwL8fN-8" value="2.1: DisplayAvailablePlants()" style="text;html=1;align=center;verticalAlign=middle;resizable=0;points=[];autosize=1;strokeColor=none;fillColor=none;" parent="1" vertex="1">
          <mxGeometry x="426.44" y="198" width="180" height="30" as="geometry" />
        </mxCell>
        <mxCell id="UXip8PJxLFzmAzZwL8fN-9" value="1.1: RequestForPlants()" style="text;html=1;align=center;verticalAlign=middle;resizable=0;points=[];autosize=1;strokeColor=none;fillColor=none;" parent="1" vertex="1">
          <mxGeometry x="440" y="218" width="150" height="30" as="geometry" />
        </mxCell>
        <mxCell id="UXip8PJxLFzmAzZwL8fN-10" value="3.1 : PlantChoice()" style="text;html=1;align=center;verticalAlign=middle;resizable=0;points=[];autosize=1;strokeColor=none;fillColor=none;" parent="1" vertex="1">
          <mxGeometry x="445" y="258" width="120" height="30" as="geometry" />
        </mxCell>
        <mxCell id="UXip8PJxLFzmAzZwL8fN-11" value="4.1: InitiatePurchaseProcess()" style="text;html=1;align=center;verticalAlign=middle;resizable=0;points=[];autosize=1;strokeColor=none;fillColor=none;" parent="1" vertex="1">
          <mxGeometry x="420" y="278" width="180" height="30" as="geometry" />
        </mxCell>
        <mxCell id="UXip8PJxLFzmAzZwL8fN-12" value="5.1: DisplayPaymentForm()" style="text;html=1;align=center;verticalAlign=middle;resizable=0;points=[];autosize=1;strokeColor=none;fillColor=none;" parent="1" vertex="1">
          <mxGeometry x="425" y="298" width="170" height="30" as="geometry" />
        </mxCell>
        <mxCell id="UXip8PJxLFzmAzZwL8fN-15" value="6.1.1: FilledPaymentForm()" style="text;html=1;align=center;verticalAlign=middle;resizable=0;points=[];autosize=1;strokeColor=none;fillColor=none;" parent="1" vertex="1">
          <mxGeometry x="800" y="150" width="170" height="30" as="geometry" />
        </mxCell>
        <mxCell id="UXip8PJxLFzmAzZwL8fN-16" value="2: DisplayAvailablePlant()" style="text;html=1;align=center;verticalAlign=middle;resizable=0;points=[];autosize=1;strokeColor=none;fillColor=none;" parent="1" vertex="1">
          <mxGeometry x="805" y="188" width="160" height="30" as="geometry" />
        </mxCell>
        <mxCell id="UXip8PJxLFzmAzZwL8fN-17" value="1.1.1: AvailablePlants()" style="text;html=1;align=center;verticalAlign=middle;resizable=0;points=[];autosize=1;strokeColor=none;fillColor=none;" parent="1" vertex="1">
          <mxGeometry x="806.44" y="218" width="150" height="30" as="geometry" />
        </mxCell>
        <mxCell id="UXip8PJxLFzmAzZwL8fN-19" value="3.1.1: PlantChoice()" style="text;html=1;align=center;verticalAlign=middle;resizable=0;points=[];autosize=1;strokeColor=none;fillColor=none;" parent="1" vertex="1">
          <mxGeometry x="821.44" y="264.49" width="130" height="30" as="geometry" />
        </mxCell>
        <mxCell id="UXip8PJxLFzmAzZwL8fN-20" value="4.1.1: InitiatePurchaseProcess()" style="text;html=1;align=center;verticalAlign=middle;resizable=0;points=[];autosize=1;strokeColor=none;fillColor=none;" parent="1" vertex="1">
          <mxGeometry x="790" y="294.49" width="190" height="30" as="geometry" />
        </mxCell>
        <mxCell id="A46HuOty-SrwAg4ySDIs-1" value="&lt;u&gt;:PurchasePlantInterface&lt;/u&gt;" style="text;html=1;align=center;verticalAlign=middle;resizable=0;points=[];autosize=1;strokeColor=none;fillColor=none;" parent="1" vertex="1">
          <mxGeometry x="266.44" y="204.5" width="150" height="30" as="geometry" />
        </mxCell>
        <mxCell id="e7Mgdny6MJ-sRUz_a4oF-1" value=":&lt;u&gt;PlantRegistry&lt;/u&gt;" style="text;html=1;align=center;verticalAlign=middle;resizable=0;points=[];autosize=1;strokeColor=none;fillColor=none;" parent="1" vertex="1">
          <mxGeometry x="651.44" y="204.5" width="100" height="30" as="geometry" />
        </mxCell>
        <mxCell id="BOXbPyxSicGcJmKo7QIg-1" value=":&lt;u&gt;PlantAvailability&lt;/u&gt;" style="text;html=1;align=center;verticalAlign=middle;resizable=0;points=[];autosize=1;strokeColor=none;fillColor=none;" parent="1" vertex="1">
          <mxGeometry x="1026.44" y="204.5" width="110" height="30" as="geometry" />
        </mxCell>
        <mxCell id="sab3zn6_fREiBsBLpArZ-4" value="" style="endArrow=classic;html=1;rounded=0;" parent="1" edge="1">
          <mxGeometry width="50" height="50" relative="1" as="geometry">
            <mxPoint x="625" y="380" as="sourcePoint" />
            <mxPoint x="460" y="540" as="targetPoint" />
          </mxGeometry>
        </mxCell>
        <mxCell id="sab3zn6_fREiBsBLpArZ-5" value="7.1*: PurchasedConfirmWithReceipt()" style="text;html=1;align=center;verticalAlign=middle;resizable=0;points=[];autosize=1;strokeColor=none;fillColor=none;rotation=-45;" parent="1" vertex="1">
          <mxGeometry x="421.44" y="430" width="220" height="30" as="geometry" />
        </mxCell>
        <mxCell id="sab3zn6_fREiBsBLpArZ-8" value="" style="endArrow=classic;html=1;rounded=0;entryX=0.935;entryY=1.14;entryDx=0;entryDy=0;entryPerimeter=0;" parent="1" edge="1">
          <mxGeometry width="50" height="50" relative="1" as="geometry">
            <mxPoint x="800" y="580" as="sourcePoint" />
            <mxPoint x="659.3224836564959" y="417.8304167410678" as="targetPoint" />
          </mxGeometry>
        </mxCell>
        <mxCell id="sab3zn6_fREiBsBLpArZ-9" value="&lt;div&gt;7: PurchasedConfirmWithReceipt()&lt;/div&gt;" style="text;html=1;align=center;verticalAlign=middle;resizable=0;points=[];autosize=1;strokeColor=none;fillColor=none;rotation=-130;" parent="1" vertex="1">
          <mxGeometry x="610" y="500" width="210" height="30" as="geometry" />
        </mxCell>
        <mxCell id="sab3zn6_fREiBsBLpArZ-10" value="" style="endArrow=classic;html=1;rounded=0;" parent="1" edge="1">
          <mxGeometry width="50" height="50" relative="1" as="geometry">
            <mxPoint x="840" y="540" as="sourcePoint" />
            <mxPoint x="700" y="380" as="targetPoint" />
          </mxGeometry>
        </mxCell>
        <mxCell id="sab3zn6_fREiBsBLpArZ-11" value="5: ProvidePaymentForm()" style="text;html=1;align=center;verticalAlign=middle;resizable=0;points=[];autosize=1;strokeColor=none;fillColor=none;rotation=-130;" parent="1" vertex="1">
          <mxGeometry x="675" y="440" width="160" height="30" as="geometry" />
        </mxCell>
        <mxCell id="sab3zn6_fREiBsBLpArZ-12" value="" style="endArrow=classic;html=1;rounded=0;" parent="1" edge="1">
          <mxGeometry width="50" height="50" relative="1" as="geometry">
            <mxPoint x="680" y="390" as="sourcePoint" />
            <mxPoint x="830" y="560" as="targetPoint" />
          </mxGeometry>
        </mxCell>
        <mxCell id="sab3zn6_fREiBsBLpArZ-13" value="8.1.2: FillePaymentForm()" style="text;html=1;align=center;verticalAlign=middle;resizable=0;points=[];autosize=1;strokeColor=none;fillColor=none;rotation=-131;" parent="1" vertex="1">
          <mxGeometry x="656.44" y="470" width="160" height="30" as="geometry" />
        </mxCell>
        <mxCell id="sab3zn6_fREiBsBLpArZ-14" value="" style="endArrow=classic;html=1;rounded=0;" parent="1" edge="1">
          <mxGeometry width="50" height="50" relative="1" as="geometry">
            <mxPoint x="730" y="390" as="sourcePoint" />
            <mxPoint x="880" y="560" as="targetPoint" />
          </mxGeometry>
        </mxCell>
        <mxCell id="sab3zn6_fREiBsBLpArZ-15" value="4.1.2*: InitiatePurchaseProcess()" style="text;html=1;align=center;verticalAlign=middle;resizable=0;points=[];autosize=1;strokeColor=none;fillColor=none;rotation=45;" parent="1" vertex="1">
          <mxGeometry x="710" y="450" width="200" height="30" as="geometry" />
        </mxCell>
        <mxCell id="sab3zn6_fREiBsBLpArZ-16" value="" style="endArrow=classic;html=1;rounded=0;exitX=-0.003;exitY=-0.025;exitDx=0;exitDy=0;exitPerimeter=0;" parent="1" source="sab3zn6_fREiBsBLpArZ-15" edge="1">
          <mxGeometry width="50" height="50" relative="1" as="geometry">
            <mxPoint x="760" y="390" as="sourcePoint" />
            <mxPoint x="900" y="540" as="targetPoint" />
          </mxGeometry>
        </mxCell>
        <mxCell id="sab3zn6_fREiBsBLpArZ-17" value="3.1.3: PreferredPlantForPurchase()" style="text;html=1;align=center;verticalAlign=middle;resizable=0;points=[];autosize=1;strokeColor=none;fillColor=none;rotation=45;" parent="1" vertex="1">
          <mxGeometry x="746.44" y="450" width="210" height="30" as="geometry" />
        </mxCell>
        <mxCell id="sab3zn6_fREiBsBLpArZ-18" value="" style="endArrow=classic;html=1;rounded=0;" parent="1" edge="1">
          <mxGeometry width="50" height="50" relative="1" as="geometry">
            <mxPoint x="820" y="380" as="sourcePoint" />
            <mxPoint x="1140" y="520" as="targetPoint" />
          </mxGeometry>
        </mxCell>
        <mxCell id="sab3zn6_fREiBsBLpArZ-19" value="3.1.2* : PreferredPlant()" style="text;html=1;align=center;verticalAlign=middle;resizable=0;points=[];autosize=1;strokeColor=none;fillColor=none;rotation=15;" parent="1" vertex="1">
          <mxGeometry x="940" y="430" width="150" height="30" as="geometry" />
        </mxCell>
        <mxCell id="AT5ARkvapUPClbSGtpa0-3" style="edgeStyle=orthogonalEdgeStyle;rounded=0;orthogonalLoop=1;jettySize=auto;html=1;endArrow=none;endFill=0;exitX=0.605;exitY=0.001;exitDx=0;exitDy=0;exitPerimeter=0;entryX=0.612;entryY=1.001;entryDx=0;entryDy=0;entryPerimeter=0;" parent="1" source="4WiNHWwWMSygDms6drnl-12" target="4WiNHWwWMSygDms6drnl-31" edge="1">
          <mxGeometry relative="1" as="geometry">
            <mxPoint x="1010" y="260" as="targetPoint" />
            <Array as="points">
              <mxPoint x="774" y="260" />
            </Array>
          </mxGeometry>
        </mxCell>
      </root>
    </mxGraphModel>
  </diagram>
</mxfile>
